<?xml version="1.0" encoding="utf-8" standalone="no"?>
<!DOCTYPE svg PUBLIC "-//W3C//DTD SVG 1.1//EN"
  "http://www.w3.org/Graphics/SVG/1.1/DTD/svg11.dtd">
<!-- Created with matplotlib (https://matplotlib.org/) -->
<svg height="286.047825pt" version="1.1" viewBox="0 0 451.021269 286.047825" width="451.021269pt" xmlns="http://www.w3.org/2000/svg" xmlns:xlink="http://www.w3.org/1999/xlink">
 <metadata>
  <rdf:RDF xmlns:cc="http://creativecommons.org/ns#" xmlns:dc="http://purl.org/dc/elements/1.1/" xmlns:rdf="http://www.w3.org/1999/02/22-rdf-syntax-ns#">
   <cc:Work>
    <dc:type rdf:resource="http://purl.org/dc/dcmitype/StillImage"/>
    <dc:date>2020-12-17T20:17:55.572563</dc:date>
    <dc:format>image/svg+xml</dc:format>
    <dc:creator>
     <cc:Agent>
      <dc:title>Matplotlib v3.3.3, https://matplotlib.org/</dc:title>
     </cc:Agent>
    </dc:creator>
   </cc:Work>
  </rdf:RDF>
 </metadata>
 <defs>
  <style type="text/css">*{stroke-linecap:butt;stroke-linejoin:round;}</style>
 </defs>
 <g id="figure_1">
  <g id="patch_1">
   <path d="M 0 286.047825 
L 451.021269 286.047825 
L 451.021269 0 
L 0 0 
z
" style="fill:#f0f0f0;"/>
  </g>
  <g id="axes_1">
   <g id="patch_2">
    <path d="M 55.2375 261.79845 
L 431.0775 261.79845 
L 431.0775 28.51845 
L 55.2375 28.51845 
z
" style="fill:#f0f0f0;"/>
   </g>
   <g id="matplotlib.axis_1">
    <g id="xtick_1">
     <g id="line2d_1">
      <path clip-path="url(#p453fd76690)" d="M 70.262867 261.79845 
L 70.262867 28.51845 
" style="fill:none;stroke:#cbcbcb;"/>
     </g>
     <g id="line2d_2"/>
     <g id="text_1">
      <!-- 0 -->
      <g transform="translate(65.809117 275.936262)scale(0.14 -0.14)">
       <defs>
        <path d="M 31.78125 66.40625 
Q 24.171875 66.40625 20.328125 58.90625 
Q 16.5 51.421875 16.5 36.375 
Q 16.5 21.390625 20.328125 13.890625 
Q 24.171875 6.390625 31.78125 6.390625 
Q 39.453125 6.390625 43.28125 13.890625 
Q 47.125 21.390625 47.125 36.375 
Q 47.125 51.421875 43.28125 58.90625 
Q 39.453125 66.40625 31.78125 66.40625 
z
M 31.78125 74.21875 
Q 44.046875 74.21875 50.515625 64.515625 
Q 56.984375 54.828125 56.984375 36.375 
Q 56.984375 17.96875 50.515625 8.265625 
Q 44.046875 -1.421875 31.78125 -1.421875 
Q 19.53125 -1.421875 13.0625 8.265625 
Q 6.59375 17.96875 6.59375 36.375 
Q 6.59375 54.828125 13.0625 64.515625 
Q 19.53125 74.21875 31.78125 74.21875 
z
" id="DejaVuSans-48"/>
       </defs>
       <use xlink:href="#DejaVuSans-48"/>
      </g>
     </g>
    </g>
    <g id="xtick_2">
     <g id="line2d_3">
      <path clip-path="url(#p453fd76690)" d="M 121.719603 261.79845 
L 121.719603 28.51845 
" style="fill:none;stroke:#cbcbcb;"/>
     </g>
     <g id="line2d_4"/>
     <g id="text_2">
      <!-- 25 -->
      <g transform="translate(112.812103 275.936262)scale(0.14 -0.14)">
       <defs>
        <path d="M 19.1875 8.296875 
L 53.609375 8.296875 
L 53.609375 0 
L 7.328125 0 
L 7.328125 8.296875 
Q 12.9375 14.109375 22.625 23.890625 
Q 32.328125 33.6875 34.8125 36.53125 
Q 39.546875 41.84375 41.421875 45.53125 
Q 43.3125 49.21875 43.3125 52.78125 
Q 43.3125 58.59375 39.234375 62.25 
Q 35.15625 65.921875 28.609375 65.921875 
Q 23.96875 65.921875 18.8125 64.3125 
Q 13.671875 62.703125 7.8125 59.421875 
L 7.8125 69.390625 
Q 13.765625 71.78125 18.9375 73 
Q 24.125 74.21875 28.421875 74.21875 
Q 39.75 74.21875 46.484375 68.546875 
Q 53.21875 62.890625 53.21875 53.421875 
Q 53.21875 48.921875 51.53125 44.890625 
Q 49.859375 40.875 45.40625 35.40625 
Q 44.1875 33.984375 37.640625 27.21875 
Q 31.109375 20.453125 19.1875 8.296875 
z
" id="DejaVuSans-50"/>
        <path d="M 10.796875 72.90625 
L 49.515625 72.90625 
L 49.515625 64.59375 
L 19.828125 64.59375 
L 19.828125 46.734375 
Q 21.96875 47.46875 24.109375 47.828125 
Q 26.265625 48.1875 28.421875 48.1875 
Q 40.625 48.1875 47.75 41.5 
Q 54.890625 34.8125 54.890625 23.390625 
Q 54.890625 11.625 47.5625 5.09375 
Q 40.234375 -1.421875 26.90625 -1.421875 
Q 22.3125 -1.421875 17.546875 -0.640625 
Q 12.796875 0.140625 7.71875 1.703125 
L 7.71875 11.625 
Q 12.109375 9.234375 16.796875 8.0625 
Q 21.484375 6.890625 26.703125 6.890625 
Q 35.15625 6.890625 40.078125 11.328125 
Q 45.015625 15.765625 45.015625 23.390625 
Q 45.015625 31 40.078125 35.4375 
Q 35.15625 39.890625 26.703125 39.890625 
Q 22.75 39.890625 18.8125 39.015625 
Q 14.890625 38.140625 10.796875 36.28125 
z
" id="DejaVuSans-53"/>
       </defs>
       <use xlink:href="#DejaVuSans-50"/>
       <use x="63.623047" xlink:href="#DejaVuSans-53"/>
      </g>
     </g>
    </g>
    <g id="xtick_3">
     <g id="line2d_5">
      <path clip-path="url(#p453fd76690)" d="M 173.176339 261.79845 
L 173.176339 28.51845 
" style="fill:none;stroke:#cbcbcb;"/>
     </g>
     <g id="line2d_6"/>
     <g id="text_3">
      <!-- 50 -->
      <g transform="translate(164.268839 275.936262)scale(0.14 -0.14)">
       <use xlink:href="#DejaVuSans-53"/>
       <use x="63.623047" xlink:href="#DejaVuSans-48"/>
      </g>
     </g>
    </g>
    <g id="xtick_4">
     <g id="line2d_7">
      <path clip-path="url(#p453fd76690)" d="M 224.633075 261.79845 
L 224.633075 28.51845 
" style="fill:none;stroke:#cbcbcb;"/>
     </g>
     <g id="line2d_8"/>
     <g id="text_4">
      <!-- 75 -->
      <g transform="translate(215.725575 275.936262)scale(0.14 -0.14)">
       <defs>
        <path d="M 8.203125 72.90625 
L 55.078125 72.90625 
L 55.078125 68.703125 
L 28.609375 0 
L 18.3125 0 
L 43.21875 64.59375 
L 8.203125 64.59375 
z
" id="DejaVuSans-55"/>
       </defs>
       <use xlink:href="#DejaVuSans-55"/>
       <use x="63.623047" xlink:href="#DejaVuSans-53"/>
      </g>
     </g>
    </g>
    <g id="xtick_5">
     <g id="line2d_9">
      <path clip-path="url(#p453fd76690)" d="M 276.089811 261.79845 
L 276.089811 28.51845 
" style="fill:none;stroke:#cbcbcb;"/>
     </g>
     <g id="line2d_10"/>
     <g id="text_5">
      <!-- 100 -->
      <g transform="translate(262.728561 275.936262)scale(0.14 -0.14)">
       <defs>
        <path d="M 12.40625 8.296875 
L 28.515625 8.296875 
L 28.515625 63.921875 
L 10.984375 60.40625 
L 10.984375 69.390625 
L 28.421875 72.90625 
L 38.28125 72.90625 
L 38.28125 8.296875 
L 54.390625 8.296875 
L 54.390625 0 
L 12.40625 0 
z
" id="DejaVuSans-49"/>
       </defs>
       <use xlink:href="#DejaVuSans-49"/>
       <use x="63.623047" xlink:href="#DejaVuSans-48"/>
       <use x="127.246094" xlink:href="#DejaVuSans-48"/>
      </g>
     </g>
    </g>
    <g id="xtick_6">
     <g id="line2d_11">
      <path clip-path="url(#p453fd76690)" d="M 327.546547 261.79845 
L 327.546547 28.51845 
" style="fill:none;stroke:#cbcbcb;"/>
     </g>
     <g id="line2d_12"/>
     <g id="text_6">
      <!-- 125 -->
      <g transform="translate(314.185297 275.936262)scale(0.14 -0.14)">
       <use xlink:href="#DejaVuSans-49"/>
       <use x="63.623047" xlink:href="#DejaVuSans-50"/>
       <use x="127.246094" xlink:href="#DejaVuSans-53"/>
      </g>
     </g>
    </g>
    <g id="xtick_7">
     <g id="line2d_13">
      <path clip-path="url(#p453fd76690)" d="M 379.003283 261.79845 
L 379.003283 28.51845 
" style="fill:none;stroke:#cbcbcb;"/>
     </g>
     <g id="line2d_14"/>
     <g id="text_7">
      <!-- 150 -->
      <g transform="translate(365.642033 275.936262)scale(0.14 -0.14)">
       <use xlink:href="#DejaVuSans-49"/>
       <use x="63.623047" xlink:href="#DejaVuSans-53"/>
       <use x="127.246094" xlink:href="#DejaVuSans-48"/>
      </g>
     </g>
    </g>
    <g id="xtick_8">
     <g id="line2d_15">
      <path clip-path="url(#p453fd76690)" d="M 430.460019 261.79845 
L 430.460019 28.51845 
" style="fill:none;stroke:#cbcbcb;"/>
     </g>
     <g id="line2d_16"/>
     <g id="text_8">
      <!-- 175 -->
      <g transform="translate(417.098769 275.936262)scale(0.14 -0.14)">
       <use xlink:href="#DejaVuSans-49"/>
       <use x="63.623047" xlink:href="#DejaVuSans-55"/>
       <use x="127.246094" xlink:href="#DejaVuSans-53"/>
      </g>
     </g>
    </g>
   </g>
   <g id="matplotlib.axis_2">
    <g id="ytick_1">
     <g id="line2d_17">
      <path clip-path="url(#p453fd76690)" d="M 55.2375 261.79845 
L 431.0775 261.79845 
" style="fill:none;stroke:#cbcbcb;"/>
     </g>
     <g id="line2d_18"/>
     <g id="text_9">
      <!-- 0 -->
      <g transform="translate(42.83 267.117356)scale(0.14 -0.14)">
       <use xlink:href="#DejaVuSans-48"/>
      </g>
     </g>
    </g>
    <g id="ytick_2">
     <g id="line2d_19">
      <path clip-path="url(#p453fd76690)" d="M 55.2375 209.20914 
L 431.0775 209.20914 
" style="fill:none;stroke:#cbcbcb;"/>
     </g>
     <g id="line2d_20"/>
     <g id="text_10">
      <!-- 20000 -->
      <g transform="translate(7.2 214.528046)scale(0.14 -0.14)">
       <use xlink:href="#DejaVuSans-50"/>
       <use x="63.623047" xlink:href="#DejaVuSans-48"/>
       <use x="127.246094" xlink:href="#DejaVuSans-48"/>
       <use x="190.869141" xlink:href="#DejaVuSans-48"/>
       <use x="254.492188" xlink:href="#DejaVuSans-48"/>
      </g>
     </g>
    </g>
    <g id="ytick_3">
     <g id="line2d_21">
      <path clip-path="url(#p453fd76690)" d="M 55.2375 156.61983 
L 431.0775 156.61983 
" style="fill:none;stroke:#cbcbcb;"/>
     </g>
     <g id="line2d_22"/>
     <g id="text_11">
      <!-- 40000 -->
      <g transform="translate(7.2 161.938736)scale(0.14 -0.14)">
       <defs>
        <path d="M 37.796875 64.3125 
L 12.890625 25.390625 
L 37.796875 25.390625 
z
M 35.203125 72.90625 
L 47.609375 72.90625 
L 47.609375 25.390625 
L 58.015625 25.390625 
L 58.015625 17.1875 
L 47.609375 17.1875 
L 47.609375 0 
L 37.796875 0 
L 37.796875 17.1875 
L 4.890625 17.1875 
L 4.890625 26.703125 
z
" id="DejaVuSans-52"/>
       </defs>
       <use xlink:href="#DejaVuSans-52"/>
       <use x="63.623047" xlink:href="#DejaVuSans-48"/>
       <use x="127.246094" xlink:href="#DejaVuSans-48"/>
       <use x="190.869141" xlink:href="#DejaVuSans-48"/>
       <use x="254.492188" xlink:href="#DejaVuSans-48"/>
      </g>
     </g>
    </g>
    <g id="ytick_4">
     <g id="line2d_23">
      <path clip-path="url(#p453fd76690)" d="M 55.2375 104.03052 
L 431.0775 104.03052 
" style="fill:none;stroke:#cbcbcb;"/>
     </g>
     <g id="line2d_24"/>
     <g id="text_12">
      <!-- 60000 -->
      <g transform="translate(7.2 109.349426)scale(0.14 -0.14)">
       <defs>
        <path d="M 33.015625 40.375 
Q 26.375 40.375 22.484375 35.828125 
Q 18.609375 31.296875 18.609375 23.390625 
Q 18.609375 15.53125 22.484375 10.953125 
Q 26.375 6.390625 33.015625 6.390625 
Q 39.65625 6.390625 43.53125 10.953125 
Q 47.40625 15.53125 47.40625 23.390625 
Q 47.40625 31.296875 43.53125 35.828125 
Q 39.65625 40.375 33.015625 40.375 
z
M 52.59375 71.296875 
L 52.59375 62.3125 
Q 48.875 64.0625 45.09375 64.984375 
Q 41.3125 65.921875 37.59375 65.921875 
Q 27.828125 65.921875 22.671875 59.328125 
Q 17.53125 52.734375 16.796875 39.40625 
Q 19.671875 43.65625 24.015625 45.921875 
Q 28.375 48.1875 33.59375 48.1875 
Q 44.578125 48.1875 50.953125 41.515625 
Q 57.328125 34.859375 57.328125 23.390625 
Q 57.328125 12.15625 50.6875 5.359375 
Q 44.046875 -1.421875 33.015625 -1.421875 
Q 20.359375 -1.421875 13.671875 8.265625 
Q 6.984375 17.96875 6.984375 36.375 
Q 6.984375 53.65625 15.1875 63.9375 
Q 23.390625 74.21875 37.203125 74.21875 
Q 40.921875 74.21875 44.703125 73.484375 
Q 48.484375 72.75 52.59375 71.296875 
z
" id="DejaVuSans-54"/>
       </defs>
       <use xlink:href="#DejaVuSans-54"/>
       <use x="63.623047" xlink:href="#DejaVuSans-48"/>
       <use x="127.246094" xlink:href="#DejaVuSans-48"/>
       <use x="190.869141" xlink:href="#DejaVuSans-48"/>
       <use x="254.492188" xlink:href="#DejaVuSans-48"/>
      </g>
     </g>
    </g>
    <g id="ytick_5">
     <g id="line2d_25">
      <path clip-path="url(#p453fd76690)" d="M 55.2375 51.44121 
L 431.0775 51.44121 
" style="fill:none;stroke:#cbcbcb;"/>
     </g>
     <g id="line2d_26"/>
     <g id="text_13">
      <!-- 80000 -->
      <g transform="translate(7.2 56.760116)scale(0.14 -0.14)">
       <defs>
        <path d="M 31.78125 34.625 
Q 24.75 34.625 20.71875 30.859375 
Q 16.703125 27.09375 16.703125 20.515625 
Q 16.703125 13.921875 20.71875 10.15625 
Q 24.75 6.390625 31.78125 6.390625 
Q 38.8125 6.390625 42.859375 10.171875 
Q 46.921875 13.96875 46.921875 20.515625 
Q 46.921875 27.09375 42.890625 30.859375 
Q 38.875 34.625 31.78125 34.625 
z
M 21.921875 38.8125 
Q 15.578125 40.375 12.03125 44.71875 
Q 8.5 49.078125 8.5 55.328125 
Q 8.5 64.0625 14.71875 69.140625 
Q 20.953125 74.21875 31.78125 74.21875 
Q 42.671875 74.21875 48.875 69.140625 
Q 55.078125 64.0625 55.078125 55.328125 
Q 55.078125 49.078125 51.53125 44.71875 
Q 48 40.375 41.703125 38.8125 
Q 48.828125 37.15625 52.796875 32.3125 
Q 56.78125 27.484375 56.78125 20.515625 
Q 56.78125 9.90625 50.3125 4.234375 
Q 43.84375 -1.421875 31.78125 -1.421875 
Q 19.734375 -1.421875 13.25 4.234375 
Q 6.78125 9.90625 6.78125 20.515625 
Q 6.78125 27.484375 10.78125 32.3125 
Q 14.796875 37.15625 21.921875 38.8125 
z
M 18.3125 54.390625 
Q 18.3125 48.734375 21.84375 45.5625 
Q 25.390625 42.390625 31.78125 42.390625 
Q 38.140625 42.390625 41.71875 45.5625 
Q 45.3125 48.734375 45.3125 54.390625 
Q 45.3125 60.0625 41.71875 63.234375 
Q 38.140625 66.40625 31.78125 66.40625 
Q 25.390625 66.40625 21.84375 63.234375 
Q 18.3125 60.0625 18.3125 54.390625 
z
" id="DejaVuSans-56"/>
       </defs>
       <use xlink:href="#DejaVuSans-56"/>
       <use x="63.623047" xlink:href="#DejaVuSans-48"/>
       <use x="127.246094" xlink:href="#DejaVuSans-48"/>
       <use x="190.869141" xlink:href="#DejaVuSans-48"/>
       <use x="254.492188" xlink:href="#DejaVuSans-48"/>
      </g>
     </g>
    </g>
   </g>
   <g id="patch_3">
    <path clip-path="url(#p453fd76690)" d="M 72.321136 261.79845 
L 74.367081 261.79845 
L 74.367081 227.326157 
L 72.321136 227.326157 
z
" style="fill:#008fd5;"/>
   </g>
   <g id="patch_4">
    <path clip-path="url(#p453fd76690)" d="M 74.367081 261.79845 
L 76.413025 261.79845 
L 76.413025 178.596903 
L 74.367081 178.596903 
z
" style="fill:#008fd5;"/>
   </g>
   <g id="patch_5">
    <path clip-path="url(#p453fd76690)" d="M 76.413025 261.79845 
L 78.45897 261.79845 
L 78.45897 131.981738 
L 76.413025 131.981738 
z
" style="fill:#008fd5;"/>
   </g>
   <g id="patch_6">
    <path clip-path="url(#p453fd76690)" d="M 78.45897 261.79845 
L 80.504914 261.79845 
L 80.504914 99.297482 
L 78.45897 99.297482 
z
" style="fill:#008fd5;"/>
   </g>
   <g id="patch_7">
    <path clip-path="url(#p453fd76690)" d="M 80.504914 261.79845 
L 82.550859 261.79845 
L 82.550859 68.048914 
L 80.504914 68.048914 
z
" style="fill:#008fd5;"/>
   </g>
   <g id="patch_8">
    <path clip-path="url(#p453fd76690)" d="M 82.550859 261.79845 
L 84.596803 261.79845 
L 84.596803 46.76865 
L 82.550859 46.76865 
z
" style="fill:#008fd5;"/>
   </g>
   <g id="patch_9">
    <path clip-path="url(#p453fd76690)" d="M 84.596803 261.79845 
L 86.642748 261.79845 
L 86.642748 39.627021 
L 84.596803 39.627021 
z
" style="fill:#008fd5;"/>
   </g>
   <g id="patch_10">
    <path clip-path="url(#p453fd76690)" d="M 86.642748 261.79845 
L 88.688692 261.79845 
L 88.688692 45.58802 
L 86.642748 45.58802 
z
" style="fill:#008fd5;"/>
   </g>
   <g id="patch_11">
    <path clip-path="url(#p453fd76690)" d="M 88.688692 261.79845 
L 90.734637 261.79845 
L 90.734637 59.931754 
L 88.688692 59.931754 
z
" style="fill:#008fd5;"/>
   </g>
   <g id="patch_12">
    <path clip-path="url(#p453fd76690)" d="M 90.734637 261.79845 
L 92.780581 261.79845 
L 92.780581 79.405576 
L 90.734637 79.405576 
z
" style="fill:#008fd5;"/>
   </g>
   <g id="patch_13">
    <path clip-path="url(#p453fd76690)" d="M 92.780581 261.79845 
L 94.826526 261.79845 
L 94.826526 101.443126 
L 92.780581 101.443126 
z
" style="fill:#008fd5;"/>
   </g>
   <g id="patch_14">
    <path clip-path="url(#p453fd76690)" d="M 94.826526 261.79845 
L 96.87247 261.79845 
L 96.87247 122.52618 
L 94.826526 122.52618 
z
" style="fill:#008fd5;"/>
   </g>
   <g id="patch_15">
    <path clip-path="url(#p453fd76690)" d="M 96.87247 261.79845 
L 98.918415 261.79845 
L 98.918415 142.891391 
L 96.87247 142.891391 
z
" style="fill:#008fd5;"/>
   </g>
   <g id="patch_16">
    <path clip-path="url(#p453fd76690)" d="M 98.918415 261.79845 
L 100.964359 261.79845 
L 100.964359 161.544819 
L 98.918415 161.544819 
z
" style="fill:#008fd5;"/>
   </g>
   <g id="patch_17">
    <path clip-path="url(#p453fd76690)" d="M 100.964359 261.79845 
L 103.010303 261.79845 
L 103.010303 177.079701 
L 100.964359 177.079701 
z
" style="fill:#008fd5;"/>
   </g>
   <g id="patch_18">
    <path clip-path="url(#p453fd76690)" d="M 103.010303 261.79845 
L 105.056248 261.79845 
L 105.056248 190.923837 
L 103.010303 190.923837 
z
" style="fill:#008fd5;"/>
   </g>
   <g id="patch_19">
    <path clip-path="url(#p453fd76690)" d="M 105.056248 261.79845 
L 107.102192 261.79845 
L 107.102192 202.443525 
L 105.056248 202.443525 
z
" style="fill:#008fd5;"/>
   </g>
   <g id="patch_20">
    <path clip-path="url(#p453fd76690)" d="M 107.102192 261.79845 
L 109.148137 261.79845 
L 109.148137 212.640592 
L 107.102192 212.640592 
z
" style="fill:#008fd5;"/>
   </g>
   <g id="patch_21">
    <path clip-path="url(#p453fd76690)" d="M 109.148137 261.79845 
L 111.194081 261.79845 
L 111.194081 219.866364 
L 109.148137 219.866364 
z
" style="fill:#008fd5;"/>
   </g>
   <g id="patch_22">
    <path clip-path="url(#p453fd76690)" d="M 111.194081 261.79845 
L 113.240026 261.79845 
L 113.240026 226.560983 
L 111.194081 226.560983 
z
" style="fill:#008fd5;"/>
   </g>
   <g id="patch_23">
    <path clip-path="url(#p453fd76690)" d="M 113.240026 261.79845 
L 115.28597 261.79845 
L 115.28597 232.33266 
L 113.240026 232.33266 
z
" style="fill:#008fd5;"/>
   </g>
   <g id="patch_24">
    <path clip-path="url(#p453fd76690)" d="M 115.28597 261.79845 
L 117.331915 261.79845 
L 117.331915 236.616059 
L 115.28597 236.616059 
z
" style="fill:#008fd5;"/>
   </g>
   <g id="patch_25">
    <path clip-path="url(#p453fd76690)" d="M 117.331915 261.79845 
L 119.377859 261.79845 
L 119.377859 240.773244 
L 117.331915 240.773244 
z
" style="fill:#008fd5;"/>
   </g>
   <g id="patch_26">
    <path clip-path="url(#p453fd76690)" d="M 119.377859 261.79845 
L 121.423804 261.79845 
L 121.423804 243.615696 
L 119.377859 243.615696 
z
" style="fill:#008fd5;"/>
   </g>
   <g id="patch_27">
    <path clip-path="url(#p453fd76690)" d="M 121.423804 261.79845 
L 123.469748 261.79845 
L 123.469748 246.413447 
L 121.423804 246.413447 
z
" style="fill:#008fd5;"/>
   </g>
   <g id="patch_28">
    <path clip-path="url(#p453fd76690)" d="M 123.469748 261.79845 
L 125.515693 261.79845 
L 125.515693 248.732636 
L 123.469748 248.732636 
z
" style="fill:#008fd5;"/>
   </g>
   <g id="patch_29">
    <path clip-path="url(#p453fd76690)" d="M 125.515693 261.79845 
L 127.561637 261.79845 
L 127.561637 250.368163 
L 125.515693 250.368163 
z
" style="fill:#008fd5;"/>
   </g>
   <g id="patch_30">
    <path clip-path="url(#p453fd76690)" d="M 127.561637 261.79845 
L 129.607582 261.79845 
L 129.607582 252.440182 
L 127.561637 252.440182 
z
" style="fill:#008fd5;"/>
   </g>
   <g id="patch_31">
    <path clip-path="url(#p453fd76690)" d="M 129.607582 261.79845 
L 131.653526 261.79845 
L 131.653526 253.602406 
L 129.607582 253.602406 
z
" style="fill:#008fd5;"/>
   </g>
   <g id="patch_32">
    <path clip-path="url(#p453fd76690)" d="M 131.653526 261.79845 
L 133.699471 261.79845 
L 133.699471 254.751482 
L 131.653526 254.751482 
z
" style="fill:#008fd5;"/>
   </g>
   <g id="patch_33">
    <path clip-path="url(#p453fd76690)" d="M 133.699471 261.79845 
L 135.745415 261.79845 
L 135.745415 255.669166 
L 133.699471 255.669166 
z
" style="fill:#008fd5;"/>
   </g>
   <g id="patch_34">
    <path clip-path="url(#p453fd76690)" d="M 135.745415 261.79845 
L 137.79136 261.79845 
L 137.79136 256.794577 
L 135.745415 256.794577 
z
" style="fill:#008fd5;"/>
   </g>
   <g id="patch_35">
    <path clip-path="url(#p453fd76690)" d="M 137.79136 261.79845 
L 139.837304 261.79845 
L 139.837304 257.249475 
L 137.79136 257.249475 
z
" style="fill:#008fd5;"/>
   </g>
   <g id="patch_36">
    <path clip-path="url(#p453fd76690)" d="M 139.837304 261.79845 
L 141.883249 261.79845 
L 141.883249 257.946283 
L 139.837304 257.946283 
z
" style="fill:#008fd5;"/>
   </g>
   <g id="patch_37">
    <path clip-path="url(#p453fd76690)" d="M 141.883249 261.79845 
L 143.929193 261.79845 
L 143.929193 258.296002 
L 141.883249 258.296002 
z
" style="fill:#008fd5;"/>
   </g>
   <g id="patch_38">
    <path clip-path="url(#p453fd76690)" d="M 143.929193 261.79845 
L 145.975137 261.79845 
L 145.975137 258.990181 
L 143.929193 258.990181 
z
" style="fill:#008fd5;"/>
   </g>
   <g id="patch_39">
    <path clip-path="url(#p453fd76690)" d="M 145.975137 261.79845 
L 148.021082 261.79845 
L 148.021082 259.161096 
L 145.975137 259.161096 
z
" style="fill:#008fd5;"/>
   </g>
   <g id="patch_40">
    <path clip-path="url(#p453fd76690)" d="M 148.021082 261.79845 
L 150.067026 261.79845 
L 150.067026 259.471373 
L 148.021082 259.471373 
z
" style="fill:#008fd5;"/>
   </g>
   <g id="patch_41">
    <path clip-path="url(#p453fd76690)" d="M 150.067026 261.79845 
L 152.112971 261.79845 
L 152.112971 260.015672 
L 150.067026 260.015672 
z
" style="fill:#008fd5;"/>
   </g>
   <g id="patch_42">
    <path clip-path="url(#p453fd76690)" d="M 152.112971 261.79845 
L 154.158915 261.79845 
L 154.158915 260.210253 
L 152.112971 260.210253 
z
" style="fill:#008fd5;"/>
   </g>
   <g id="patch_43">
    <path clip-path="url(#p453fd76690)" d="M 154.158915 261.79845 
L 156.20486 261.79845 
L 156.20486 260.365391 
L 154.158915 260.365391 
z
" style="fill:#008fd5;"/>
   </g>
   <g id="patch_44">
    <path clip-path="url(#p453fd76690)" d="M 156.20486 261.79845 
L 158.250804 261.79845 
L 158.250804 260.357503 
L 156.20486 260.357503 
z
" style="fill:#008fd5;"/>
   </g>
   <g id="patch_45">
    <path clip-path="url(#p453fd76690)" d="M 158.250804 261.79845 
L 160.296749 261.79845 
L 160.296749 260.730887 
L 158.250804 260.730887 
z
" style="fill:#008fd5;"/>
   </g>
   <g id="patch_46">
    <path clip-path="url(#p453fd76690)" d="M 160.296749 261.79845 
L 162.342693 261.79845 
L 162.342693 260.751923 
L 160.296749 260.751923 
z
" style="fill:#008fd5;"/>
   </g>
   <g id="patch_47">
    <path clip-path="url(#p453fd76690)" d="M 162.342693 261.79845 
L 164.388638 261.79845 
L 164.388638 260.949133 
L 162.342693 260.949133 
z
" style="fill:#008fd5;"/>
   </g>
   <g id="patch_48">
    <path clip-path="url(#p453fd76690)" d="M 164.388638 261.79845 
L 166.434582 261.79845 
L 166.434582 261.067459 
L 164.388638 261.067459 
z
" style="fill:#008fd5;"/>
   </g>
   <g id="patch_49">
    <path clip-path="url(#p453fd76690)" d="M 166.434582 261.79845 
L 168.480527 261.79845 
L 168.480527 261.043793 
L 166.434582 261.043793 
z
" style="fill:#008fd5;"/>
   </g>
   <g id="patch_50">
    <path clip-path="url(#p453fd76690)" d="M 168.480527 261.79845 
L 170.526471 261.79845 
L 170.526471 261.217338 
L 168.480527 261.217338 
z
" style="fill:#008fd5;"/>
   </g>
   <g id="patch_51">
    <path clip-path="url(#p453fd76690)" d="M 170.526471 261.79845 
L 172.572416 261.79845 
L 172.572416 261.25678 
L 170.526471 261.25678 
z
" style="fill:#008fd5;"/>
   </g>
   <g id="patch_52">
    <path clip-path="url(#p453fd76690)" d="M 172.572416 261.79845 
L 174.61836 261.79845 
L 174.61836 261.330405 
L 172.572416 261.330405 
z
" style="fill:#008fd5;"/>
   </g>
   <g id="patch_53">
    <path clip-path="url(#p453fd76690)" d="M 174.61836 261.79845 
L 176.664305 261.79845 
L 176.664305 261.322517 
L 174.61836 261.322517 
z
" style="fill:#008fd5;"/>
   </g>
   <g id="patch_54">
    <path clip-path="url(#p453fd76690)" d="M 176.664305 261.79845 
L 178.710249 261.79845 
L 178.710249 261.40666 
L 176.664305 261.40666 
z
" style="fill:#008fd5;"/>
   </g>
   <g id="patch_55">
    <path clip-path="url(#p453fd76690)" d="M 178.710249 261.79845 
L 180.756194 261.79845 
L 180.756194 261.45399 
L 178.710249 261.45399 
z
" style="fill:#008fd5;"/>
   </g>
   <g id="patch_56">
    <path clip-path="url(#p453fd76690)" d="M 180.756194 261.79845 
L 182.802138 261.79845 
L 182.802138 261.514468 
L 180.756194 261.514468 
z
" style="fill:#008fd5;"/>
   </g>
   <g id="patch_57">
    <path clip-path="url(#p453fd76690)" d="M 182.802138 261.79845 
L 184.848082 261.79845 
L 184.848082 261.475026 
L 182.802138 261.475026 
z
" style="fill:#008fd5;"/>
   </g>
   <g id="patch_58">
    <path clip-path="url(#p453fd76690)" d="M 184.848082 261.79845 
L 186.894027 261.79845 
L 186.894027 261.572316 
L 184.848082 261.572316 
z
" style="fill:#008fd5;"/>
   </g>
   <g id="patch_59">
    <path clip-path="url(#p453fd76690)" d="M 186.894027 261.79845 
L 188.939971 261.79845 
L 188.939971 261.572316 
L 186.894027 261.572316 
z
" style="fill:#008fd5;"/>
   </g>
   <g id="patch_60">
    <path clip-path="url(#p453fd76690)" d="M 188.939971 261.79845 
L 190.985916 261.79845 
L 190.985916 261.580204 
L 188.939971 261.580204 
z
" style="fill:#008fd5;"/>
   </g>
   <g id="patch_61">
    <path clip-path="url(#p453fd76690)" d="M 190.985916 261.79845 
L 193.03186 261.79845 
L 193.03186 261.598611 
L 190.985916 261.598611 
z
" style="fill:#008fd5;"/>
   </g>
   <g id="patch_62">
    <path clip-path="url(#p453fd76690)" d="M 193.03186 261.79845 
L 195.077805 261.79845 
L 195.077805 261.606499 
L 193.03186 261.606499 
z
" style="fill:#008fd5;"/>
   </g>
   <g id="patch_63">
    <path clip-path="url(#p453fd76690)" d="M 195.077805 261.79845 
L 197.123749 261.79845 
L 197.123749 261.656459 
L 195.077805 261.656459 
z
" style="fill:#008fd5;"/>
   </g>
   <g id="patch_64">
    <path clip-path="url(#p453fd76690)" d="M 197.123749 261.79845 
L 199.169694 261.79845 
L 199.169694 261.680124 
L 197.123749 261.680124 
z
" style="fill:#008fd5;"/>
   </g>
   <g id="patch_65">
    <path clip-path="url(#p453fd76690)" d="M 199.169694 261.79845 
L 201.215638 261.79845 
L 201.215638 261.682754 
L 199.169694 261.682754 
z
" style="fill:#008fd5;"/>
   </g>
   <g id="patch_66">
    <path clip-path="url(#p453fd76690)" d="M 201.215638 261.79845 
L 203.261583 261.79845 
L 203.261583 261.693271 
L 201.215638 261.693271 
z
" style="fill:#008fd5;"/>
   </g>
   <g id="patch_67">
    <path clip-path="url(#p453fd76690)" d="M 203.261583 261.79845 
L 205.307527 261.79845 
L 205.307527 261.714307 
L 203.261583 261.714307 
z
" style="fill:#008fd5;"/>
   </g>
   <g id="patch_68">
    <path clip-path="url(#p453fd76690)" d="M 205.307527 261.79845 
L 207.353472 261.79845 
L 207.353472 261.711678 
L 205.307527 261.711678 
z
" style="fill:#008fd5;"/>
   </g>
   <g id="patch_69">
    <path clip-path="url(#p453fd76690)" d="M 207.353472 261.79845 
L 209.399416 261.79845 
L 209.399416 261.703789 
L 207.353472 261.703789 
z
" style="fill:#008fd5;"/>
   </g>
   <g id="patch_70">
    <path clip-path="url(#p453fd76690)" d="M 209.399416 261.79845 
L 211.445361 261.79845 
L 211.445361 261.737972 
L 209.399416 261.737972 
z
" style="fill:#008fd5;"/>
   </g>
   <g id="patch_71">
    <path clip-path="url(#p453fd76690)" d="M 211.445361 261.79845 
L 213.491305 261.79845 
L 213.491305 261.722196 
L 211.445361 261.722196 
z
" style="fill:#008fd5;"/>
   </g>
   <g id="patch_72">
    <path clip-path="url(#p453fd76690)" d="M 213.491305 261.79845 
L 215.53725 261.79845 
L 215.53725 261.735343 
L 213.491305 261.735343 
z
" style="fill:#008fd5;"/>
   </g>
   <g id="patch_73">
    <path clip-path="url(#p453fd76690)" d="M 215.53725 261.79845 
L 217.583194 261.79845 
L 217.583194 261.732713 
L 215.53725 261.732713 
z
" style="fill:#008fd5;"/>
   </g>
   <g id="patch_74">
    <path clip-path="url(#p453fd76690)" d="M 217.583194 261.79845 
L 219.629139 261.79845 
L 219.629139 261.743231 
L 217.583194 261.743231 
z
" style="fill:#008fd5;"/>
   </g>
   <g id="patch_75">
    <path clip-path="url(#p453fd76690)" d="M 219.629139 261.79845 
L 221.675083 261.79845 
L 221.675083 261.745861 
L 219.629139 261.745861 
z
" style="fill:#008fd5;"/>
   </g>
   <g id="patch_76">
    <path clip-path="url(#p453fd76690)" d="M 221.675083 261.79845 
L 223.721027 261.79845 
L 223.721027 261.756379 
L 221.675083 261.756379 
z
" style="fill:#008fd5;"/>
   </g>
   <g id="patch_77">
    <path clip-path="url(#p453fd76690)" d="M 223.721027 261.79845 
L 225.766972 261.79845 
L 225.766972 261.772155 
L 223.721027 261.772155 
z
" style="fill:#008fd5;"/>
   </g>
   <g id="patch_78">
    <path clip-path="url(#p453fd76690)" d="M 225.766972 261.79845 
L 227.812916 261.79845 
L 227.812916 261.759008 
L 225.766972 261.759008 
z
" style="fill:#008fd5;"/>
   </g>
   <g id="patch_79">
    <path clip-path="url(#p453fd76690)" d="M 227.812916 261.79845 
L 229.858861 261.79845 
L 229.858861 261.774785 
L 227.812916 261.774785 
z
" style="fill:#008fd5;"/>
   </g>
   <g id="patch_80">
    <path clip-path="url(#p453fd76690)" d="M 229.858861 261.79845 
L 231.904805 261.79845 
L 231.904805 261.782673 
L 229.858861 261.782673 
z
" style="fill:#008fd5;"/>
   </g>
   <g id="patch_81">
    <path clip-path="url(#p453fd76690)" d="M 231.904805 261.79845 
L 233.95075 261.79845 
L 233.95075 261.769526 
L 231.904805 261.769526 
z
" style="fill:#008fd5;"/>
   </g>
   <g id="patch_82">
    <path clip-path="url(#p453fd76690)" d="M 233.95075 261.79845 
L 235.996694 261.79845 
L 235.996694 261.774785 
L 233.95075 261.774785 
z
" style="fill:#008fd5;"/>
   </g>
   <g id="patch_83">
    <path clip-path="url(#p453fd76690)" d="M 235.996694 261.79845 
L 238.042639 261.79845 
L 238.042639 261.764267 
L 235.996694 261.764267 
z
" style="fill:#008fd5;"/>
   </g>
   <g id="patch_84">
    <path clip-path="url(#p453fd76690)" d="M 238.042639 261.79845 
L 240.088583 261.79845 
L 240.088583 261.777414 
L 238.042639 261.777414 
z
" style="fill:#008fd5;"/>
   </g>
   <g id="patch_85">
    <path clip-path="url(#p453fd76690)" d="M 240.088583 261.79845 
L 242.134528 261.79845 
L 242.134528 261.774785 
L 240.088583 261.774785 
z
" style="fill:#008fd5;"/>
   </g>
   <g id="patch_86">
    <path clip-path="url(#p453fd76690)" d="M 242.134528 261.79845 
L 244.180472 261.79845 
L 244.180472 261.774785 
L 242.134528 261.774785 
z
" style="fill:#008fd5;"/>
   </g>
   <g id="patch_87">
    <path clip-path="url(#p453fd76690)" d="M 244.180472 261.79845 
L 246.226417 261.79845 
L 246.226417 261.782673 
L 244.180472 261.782673 
z
" style="fill:#008fd5;"/>
   </g>
   <g id="patch_88">
    <path clip-path="url(#p453fd76690)" d="M 246.226417 261.79845 
L 248.272361 261.79845 
L 248.272361 261.777414 
L 246.226417 261.777414 
z
" style="fill:#008fd5;"/>
   </g>
   <g id="patch_89">
    <path clip-path="url(#p453fd76690)" d="M 248.272361 261.79845 
L 250.318306 261.79845 
L 250.318306 261.774785 
L 248.272361 261.774785 
z
" style="fill:#008fd5;"/>
   </g>
   <g id="patch_90">
    <path clip-path="url(#p453fd76690)" d="M 250.318306 261.79845 
L 252.36425 261.79845 
L 252.36425 261.782673 
L 250.318306 261.782673 
z
" style="fill:#008fd5;"/>
   </g>
   <g id="patch_91">
    <path clip-path="url(#p453fd76690)" d="M 252.36425 261.79845 
L 254.410195 261.79845 
L 254.410195 261.769526 
L 252.36425 261.769526 
z
" style="fill:#008fd5;"/>
   </g>
   <g id="patch_92">
    <path clip-path="url(#p453fd76690)" d="M 254.410195 261.79845 
L 256.456139 261.79845 
L 256.456139 261.782673 
L 254.410195 261.782673 
z
" style="fill:#008fd5;"/>
   </g>
   <g id="patch_93">
    <path clip-path="url(#p453fd76690)" d="M 256.456139 261.79845 
L 258.502084 261.79845 
L 258.502084 261.785303 
L 256.456139 261.785303 
z
" style="fill:#008fd5;"/>
   </g>
   <g id="patch_94">
    <path clip-path="url(#p453fd76690)" d="M 258.502084 261.79845 
L 260.548028 261.79845 
L 260.548028 261.785303 
L 258.502084 261.785303 
z
" style="fill:#008fd5;"/>
   </g>
   <g id="patch_95">
    <path clip-path="url(#p453fd76690)" d="M 260.548028 261.79845 
L 262.593973 261.79845 
L 262.593973 261.780044 
L 260.548028 261.780044 
z
" style="fill:#008fd5;"/>
   </g>
   <g id="patch_96">
    <path clip-path="url(#p453fd76690)" d="M 262.593973 261.79845 
L 264.639917 261.79845 
L 264.639917 261.782673 
L 262.593973 261.782673 
z
" style="fill:#008fd5;"/>
   </g>
   <g id="patch_97">
    <path clip-path="url(#p453fd76690)" d="M 264.639917 261.79845 
L 266.685861 261.79845 
L 266.685861 261.790562 
L 264.639917 261.790562 
z
" style="fill:#008fd5;"/>
   </g>
   <g id="patch_98">
    <path clip-path="url(#p453fd76690)" d="M 266.685861 261.79845 
L 268.731806 261.79845 
L 268.731806 261.785303 
L 266.685861 261.785303 
z
" style="fill:#008fd5;"/>
   </g>
   <g id="patch_99">
    <path clip-path="url(#p453fd76690)" d="M 268.731806 261.79845 
L 270.77775 261.79845 
L 270.77775 261.785303 
L 268.731806 261.785303 
z
" style="fill:#008fd5;"/>
   </g>
   <g id="patch_100">
    <path clip-path="url(#p453fd76690)" d="M 270.77775 261.79845 
L 272.823695 261.79845 
L 272.823695 261.793191 
L 270.77775 261.793191 
z
" style="fill:#008fd5;"/>
   </g>
   <g id="patch_101">
    <path clip-path="url(#p453fd76690)" d="M 272.823695 261.79845 
L 274.869639 261.79845 
L 274.869639 261.790562 
L 272.823695 261.790562 
z
" style="fill:#008fd5;"/>
   </g>
   <g id="patch_102">
    <path clip-path="url(#p453fd76690)" d="M 274.869639 261.79845 
L 276.915584 261.79845 
L 276.915584 261.785303 
L 274.869639 261.785303 
z
" style="fill:#008fd5;"/>
   </g>
   <g id="patch_103">
    <path clip-path="url(#p453fd76690)" d="M 276.915584 261.79845 
L 278.961528 261.79845 
L 278.961528 261.793191 
L 276.915584 261.793191 
z
" style="fill:#008fd5;"/>
   </g>
   <g id="patch_104">
    <path clip-path="url(#p453fd76690)" d="M 278.961528 261.79845 
L 281.007473 261.79845 
L 281.007473 261.795821 
L 278.961528 261.795821 
z
" style="fill:#008fd5;"/>
   </g>
   <g id="patch_105">
    <path clip-path="url(#p453fd76690)" d="M 281.007473 261.79845 
L 283.053417 261.79845 
L 283.053417 261.795821 
L 281.007473 261.795821 
z
" style="fill:#008fd5;"/>
   </g>
   <g id="patch_106">
    <path clip-path="url(#p453fd76690)" d="M 283.053417 261.79845 
L 285.099362 261.79845 
L 285.099362 261.787932 
L 283.053417 261.787932 
z
" style="fill:#008fd5;"/>
   </g>
   <g id="patch_107">
    <path clip-path="url(#p453fd76690)" d="M 285.099362 261.79845 
L 287.145306 261.79845 
L 287.145306 261.793191 
L 285.099362 261.793191 
z
" style="fill:#008fd5;"/>
   </g>
   <g id="patch_108">
    <path clip-path="url(#p453fd76690)" d="M 287.145306 261.79845 
L 289.191251 261.79845 
L 289.191251 261.790562 
L 287.145306 261.790562 
z
" style="fill:#008fd5;"/>
   </g>
   <g id="patch_109">
    <path clip-path="url(#p453fd76690)" d="M 289.191251 261.79845 
L 291.237195 261.79845 
L 291.237195 261.793191 
L 289.191251 261.793191 
z
" style="fill:#008fd5;"/>
   </g>
   <g id="patch_110">
    <path clip-path="url(#p453fd76690)" d="M 291.237195 261.79845 
L 293.28314 261.79845 
L 293.28314 261.790562 
L 291.237195 261.790562 
z
" style="fill:#008fd5;"/>
   </g>
   <g id="patch_111">
    <path clip-path="url(#p453fd76690)" d="M 293.28314 261.79845 
L 295.329084 261.79845 
L 295.329084 261.795821 
L 293.28314 261.795821 
z
" style="fill:#008fd5;"/>
   </g>
   <g id="patch_112">
    <path clip-path="url(#p453fd76690)" d="M 295.329084 261.79845 
L 297.375029 261.79845 
L 297.375029 261.793191 
L 295.329084 261.793191 
z
" style="fill:#008fd5;"/>
   </g>
   <g id="patch_113">
    <path clip-path="url(#p453fd76690)" d="M 297.375029 261.79845 
L 299.420973 261.79845 
L 299.420973 261.795821 
L 297.375029 261.795821 
z
" style="fill:#008fd5;"/>
   </g>
   <g id="patch_114">
    <path clip-path="url(#p453fd76690)" d="M 299.420973 261.79845 
L 301.466918 261.79845 
L 301.466918 261.793191 
L 299.420973 261.793191 
z
" style="fill:#008fd5;"/>
   </g>
   <g id="patch_115">
    <path clip-path="url(#p453fd76690)" d="M 301.466918 261.79845 
L 303.512862 261.79845 
L 303.512862 261.785303 
L 301.466918 261.785303 
z
" style="fill:#008fd5;"/>
   </g>
   <g id="patch_116">
    <path clip-path="url(#p453fd76690)" d="M 303.512862 261.79845 
L 305.558806 261.79845 
L 305.558806 261.795821 
L 303.512862 261.795821 
z
" style="fill:#008fd5;"/>
   </g>
   <g id="patch_117">
    <path clip-path="url(#p453fd76690)" d="M 305.558806 261.79845 
L 307.604751 261.79845 
L 307.604751 261.79845 
L 305.558806 261.79845 
z
" style="fill:#008fd5;"/>
   </g>
   <g id="patch_118">
    <path clip-path="url(#p453fd76690)" d="M 307.604751 261.79845 
L 309.650695 261.79845 
L 309.650695 261.795821 
L 307.604751 261.795821 
z
" style="fill:#008fd5;"/>
   </g>
   <g id="patch_119">
    <path clip-path="url(#p453fd76690)" d="M 309.650695 261.79845 
L 311.69664 261.79845 
L 311.69664 261.795821 
L 309.650695 261.795821 
z
" style="fill:#008fd5;"/>
   </g>
   <g id="patch_120">
    <path clip-path="url(#p453fd76690)" d="M 311.69664 261.79845 
L 313.742584 261.79845 
L 313.742584 261.79845 
L 311.69664 261.79845 
z
" style="fill:#008fd5;"/>
   </g>
   <g id="patch_121">
    <path clip-path="url(#p453fd76690)" d="M 313.742584 261.79845 
L 315.788529 261.79845 
L 315.788529 261.795821 
L 313.742584 261.795821 
z
" style="fill:#008fd5;"/>
   </g>
   <g id="patch_122">
    <path clip-path="url(#p453fd76690)" d="M 315.788529 261.79845 
L 317.834473 261.79845 
L 317.834473 261.790562 
L 315.788529 261.790562 
z
" style="fill:#008fd5;"/>
   </g>
   <g id="patch_123">
    <path clip-path="url(#p453fd76690)" d="M 317.834473 261.79845 
L 319.880418 261.79845 
L 319.880418 261.79845 
L 317.834473 261.79845 
z
" style="fill:#008fd5;"/>
   </g>
   <g id="patch_124">
    <path clip-path="url(#p453fd76690)" d="M 319.880418 261.79845 
L 321.926362 261.79845 
L 321.926362 261.795821 
L 319.880418 261.795821 
z
" style="fill:#008fd5;"/>
   </g>
   <g id="patch_125">
    <path clip-path="url(#p453fd76690)" d="M 321.926362 261.79845 
L 323.972307 261.79845 
L 323.972307 261.793191 
L 321.926362 261.793191 
z
" style="fill:#008fd5;"/>
   </g>
   <g id="patch_126">
    <path clip-path="url(#p453fd76690)" d="M 323.972307 261.79845 
L 326.018251 261.79845 
L 326.018251 261.79845 
L 323.972307 261.79845 
z
" style="fill:#008fd5;"/>
   </g>
   <g id="patch_127">
    <path clip-path="url(#p453fd76690)" d="M 326.018251 261.79845 
L 328.064196 261.79845 
L 328.064196 261.795821 
L 326.018251 261.795821 
z
" style="fill:#008fd5;"/>
   </g>
   <g id="patch_128">
    <path clip-path="url(#p453fd76690)" d="M 328.064196 261.79845 
L 330.11014 261.79845 
L 330.11014 261.790562 
L 328.064196 261.790562 
z
" style="fill:#008fd5;"/>
   </g>
   <g id="patch_129">
    <path clip-path="url(#p453fd76690)" d="M 330.11014 261.79845 
L 332.156085 261.79845 
L 332.156085 261.79845 
L 330.11014 261.79845 
z
" style="fill:#008fd5;"/>
   </g>
   <g id="patch_130">
    <path clip-path="url(#p453fd76690)" d="M 332.156085 261.79845 
L 334.202029 261.79845 
L 334.202029 261.795821 
L 332.156085 261.795821 
z
" style="fill:#008fd5;"/>
   </g>
   <g id="patch_131">
    <path clip-path="url(#p453fd76690)" d="M 334.202029 261.79845 
L 336.247974 261.79845 
L 336.247974 261.79845 
L 334.202029 261.79845 
z
" style="fill:#008fd5;"/>
   </g>
   <g id="patch_132">
    <path clip-path="url(#p453fd76690)" d="M 336.247974 261.79845 
L 338.293918 261.79845 
L 338.293918 261.79845 
L 336.247974 261.79845 
z
" style="fill:#008fd5;"/>
   </g>
   <g id="patch_133">
    <path clip-path="url(#p453fd76690)" d="M 338.293918 261.79845 
L 340.339863 261.79845 
L 340.339863 261.79845 
L 338.293918 261.79845 
z
" style="fill:#008fd5;"/>
   </g>
   <g id="patch_134">
    <path clip-path="url(#p453fd76690)" d="M 340.339863 261.79845 
L 342.385807 261.79845 
L 342.385807 261.795821 
L 340.339863 261.795821 
z
" style="fill:#008fd5;"/>
   </g>
   <g id="patch_135">
    <path clip-path="url(#p453fd76690)" d="M 342.385807 261.79845 
L 344.431751 261.79845 
L 344.431751 261.793191 
L 342.385807 261.793191 
z
" style="fill:#008fd5;"/>
   </g>
   <g id="patch_136">
    <path clip-path="url(#p453fd76690)" d="M 344.431751 261.79845 
L 346.477696 261.79845 
L 346.477696 261.79845 
L 344.431751 261.79845 
z
" style="fill:#008fd5;"/>
   </g>
   <g id="patch_137">
    <path clip-path="url(#p453fd76690)" d="M 346.477696 261.79845 
L 348.52364 261.79845 
L 348.52364 261.79845 
L 346.477696 261.79845 
z
" style="fill:#008fd5;"/>
   </g>
   <g id="patch_138">
    <path clip-path="url(#p453fd76690)" d="M 348.52364 261.79845 
L 350.569585 261.79845 
L 350.569585 261.79845 
L 348.52364 261.79845 
z
" style="fill:#008fd5;"/>
   </g>
   <g id="patch_139">
    <path clip-path="url(#p453fd76690)" d="M 350.569585 261.79845 
L 352.615529 261.79845 
L 352.615529 261.795821 
L 350.569585 261.795821 
z
" style="fill:#008fd5;"/>
   </g>
   <g id="patch_140">
    <path clip-path="url(#p453fd76690)" d="M 352.615529 261.79845 
L 354.661474 261.79845 
L 354.661474 261.79845 
L 352.615529 261.79845 
z
" style="fill:#008fd5;"/>
   </g>
   <g id="patch_141">
    <path clip-path="url(#p453fd76690)" d="M 354.661474 261.79845 
L 356.707418 261.79845 
L 356.707418 261.795821 
L 354.661474 261.795821 
z
" style="fill:#008fd5;"/>
   </g>
   <g id="patch_142">
    <path clip-path="url(#p453fd76690)" d="M 356.707418 261.79845 
L 358.753363 261.79845 
L 358.753363 261.79845 
L 356.707418 261.79845 
z
" style="fill:#008fd5;"/>
   </g>
   <g id="patch_143">
    <path clip-path="url(#p453fd76690)" d="M 358.753363 261.79845 
L 360.799307 261.79845 
L 360.799307 261.795821 
L 358.753363 261.795821 
z
" style="fill:#008fd5;"/>
   </g>
   <g id="patch_144">
    <path clip-path="url(#p453fd76690)" d="M 360.799307 261.79845 
L 362.845252 261.79845 
L 362.845252 261.79845 
L 360.799307 261.79845 
z
" style="fill:#008fd5;"/>
   </g>
   <g id="patch_145">
    <path clip-path="url(#p453fd76690)" d="M 362.845252 261.79845 
L 364.891196 261.79845 
L 364.891196 261.790562 
L 362.845252 261.790562 
z
" style="fill:#008fd5;"/>
   </g>
   <g id="patch_146">
    <path clip-path="url(#p453fd76690)" d="M 364.891196 261.79845 
L 366.937141 261.79845 
L 366.937141 261.79845 
L 364.891196 261.79845 
z
" style="fill:#008fd5;"/>
   </g>
   <g id="patch_147">
    <path clip-path="url(#p453fd76690)" d="M 366.937141 261.79845 
L 368.983085 261.79845 
L 368.983085 261.793191 
L 366.937141 261.793191 
z
" style="fill:#008fd5;"/>
   </g>
   <g id="patch_148">
    <path clip-path="url(#p453fd76690)" d="M 368.983085 261.79845 
L 371.02903 261.79845 
L 371.02903 261.79845 
L 368.983085 261.79845 
z
" style="fill:#008fd5;"/>
   </g>
   <g id="patch_149">
    <path clip-path="url(#p453fd76690)" d="M 371.02903 261.79845 
L 373.074974 261.79845 
L 373.074974 261.79845 
L 371.02903 261.79845 
z
" style="fill:#008fd5;"/>
   </g>
   <g id="patch_150">
    <path clip-path="url(#p453fd76690)" d="M 373.074974 261.79845 
L 375.120919 261.79845 
L 375.120919 261.795821 
L 373.074974 261.795821 
z
" style="fill:#008fd5;"/>
   </g>
   <g id="patch_151">
    <path clip-path="url(#p453fd76690)" d="M 375.120919 261.79845 
L 377.166863 261.79845 
L 377.166863 261.79845 
L 375.120919 261.79845 
z
" style="fill:#008fd5;"/>
   </g>
   <g id="patch_152">
    <path clip-path="url(#p453fd76690)" d="M 377.166863 261.79845 
L 379.212808 261.79845 
L 379.212808 261.79845 
L 377.166863 261.79845 
z
" style="fill:#008fd5;"/>
   </g>
   <g id="patch_153">
    <path clip-path="url(#p453fd76690)" d="M 379.212808 261.79845 
L 381.258752 261.79845 
L 381.258752 261.795821 
L 379.212808 261.795821 
z
" style="fill:#008fd5;"/>
   </g>
   <g id="patch_154">
    <path clip-path="url(#p453fd76690)" d="M 381.258752 261.79845 
L 383.304697 261.79845 
L 383.304697 261.79845 
L 381.258752 261.79845 
z
" style="fill:#008fd5;"/>
   </g>
   <g id="patch_155">
    <path clip-path="url(#p453fd76690)" d="M 383.304697 261.79845 
L 385.350641 261.79845 
L 385.350641 261.79845 
L 383.304697 261.79845 
z
" style="fill:#008fd5;"/>
   </g>
   <g id="patch_156">
    <path clip-path="url(#p453fd76690)" d="M 385.350641 261.79845 
L 387.396585 261.79845 
L 387.396585 261.79845 
L 385.350641 261.79845 
z
" style="fill:#008fd5;"/>
   </g>
   <g id="patch_157">
    <path clip-path="url(#p453fd76690)" d="M 387.396585 261.79845 
L 389.44253 261.79845 
L 389.44253 261.79845 
L 387.396585 261.79845 
z
" style="fill:#008fd5;"/>
   </g>
   <g id="patch_158">
    <path clip-path="url(#p453fd76690)" d="M 389.44253 261.79845 
L 391.488474 261.79845 
L 391.488474 261.79845 
L 389.44253 261.79845 
z
" style="fill:#008fd5;"/>
   </g>
   <g id="patch_159">
    <path clip-path="url(#p453fd76690)" d="M 391.488474 261.79845 
L 393.534419 261.79845 
L 393.534419 261.79845 
L 391.488474 261.79845 
z
" style="fill:#008fd5;"/>
   </g>
   <g id="patch_160">
    <path clip-path="url(#p453fd76690)" d="M 393.534419 261.79845 
L 395.580363 261.79845 
L 395.580363 261.79845 
L 393.534419 261.79845 
z
" style="fill:#008fd5;"/>
   </g>
   <g id="patch_161">
    <path clip-path="url(#p453fd76690)" d="M 395.580363 261.79845 
L 397.626308 261.79845 
L 397.626308 261.79845 
L 395.580363 261.79845 
z
" style="fill:#008fd5;"/>
   </g>
   <g id="patch_162">
    <path clip-path="url(#p453fd76690)" d="M 397.626308 261.79845 
L 399.672252 261.79845 
L 399.672252 261.79845 
L 397.626308 261.79845 
z
" style="fill:#008fd5;"/>
   </g>
   <g id="patch_163">
    <path clip-path="url(#p453fd76690)" d="M 399.672252 261.79845 
L 401.718197 261.79845 
L 401.718197 261.79845 
L 399.672252 261.79845 
z
" style="fill:#008fd5;"/>
   </g>
   <g id="patch_164">
    <path clip-path="url(#p453fd76690)" d="M 401.718197 261.79845 
L 403.764141 261.79845 
L 403.764141 261.79845 
L 401.718197 261.79845 
z
" style="fill:#008fd5;"/>
   </g>
   <g id="patch_165">
    <path clip-path="url(#p453fd76690)" d="M 403.764141 261.79845 
L 405.810086 261.79845 
L 405.810086 261.795821 
L 403.764141 261.795821 
z
" style="fill:#008fd5;"/>
   </g>
   <g id="patch_166">
    <path clip-path="url(#p453fd76690)" d="M 405.810086 261.79845 
L 407.85603 261.79845 
L 407.85603 261.795821 
L 405.810086 261.795821 
z
" style="fill:#008fd5;"/>
   </g>
   <g id="patch_167">
    <path clip-path="url(#p453fd76690)" d="M 407.85603 261.79845 
L 409.901975 261.79845 
L 409.901975 261.79845 
L 407.85603 261.79845 
z
" style="fill:#008fd5;"/>
   </g>
   <g id="patch_168">
    <path clip-path="url(#p453fd76690)" d="M 409.901975 261.79845 
L 411.947919 261.79845 
L 411.947919 261.79845 
L 409.901975 261.79845 
z
" style="fill:#008fd5;"/>
   </g>
   <g id="patch_169">
    <path clip-path="url(#p453fd76690)" d="M 411.947919 261.79845 
L 413.993864 261.79845 
L 413.993864 261.795821 
L 411.947919 261.795821 
z
" style="fill:#008fd5;"/>
   </g>
   <g id="patch_170">
    <path d="M 55.2375 261.79845 
L 55.2375 28.51845 
" style="fill:none;stroke:#f0f0f0;stroke-linecap:square;stroke-linejoin:miter;stroke-width:3;"/>
   </g>
   <g id="patch_171">
    <path d="M 431.0775 261.79845 
L 431.0775 28.51845 
" style="fill:none;stroke:#f0f0f0;stroke-linecap:square;stroke-linejoin:miter;stroke-width:3;"/>
   </g>
   <g id="patch_172">
    <path d="M 55.2375 261.79845 
L 431.0775 261.79845 
" style="fill:none;stroke:#f0f0f0;stroke-linecap:square;stroke-linejoin:miter;stroke-width:3;"/>
   </g>
   <g id="patch_173">
    <path d="M 55.2375 28.51845 
L 431.0775 28.51845 
" style="fill:none;stroke:#f0f0f0;stroke-linecap:square;stroke-linejoin:miter;stroke-width:3;"/>
   </g>
   <g id="text_14">
    <!-- Number of directions -->
    <g transform="translate(137.120625 22.51845)scale(0.2016 -0.2016)">
     <defs>
      <path d="M 9.8125 72.90625 
L 23.09375 72.90625 
L 55.421875 11.921875 
L 55.421875 72.90625 
L 64.984375 72.90625 
L 64.984375 0 
L 51.703125 0 
L 19.390625 60.984375 
L 19.390625 0 
L 9.8125 0 
z
" id="DejaVuSans-78"/>
      <path d="M 8.5 21.578125 
L 8.5 54.6875 
L 17.484375 54.6875 
L 17.484375 21.921875 
Q 17.484375 14.15625 20.5 10.265625 
Q 23.53125 6.390625 29.59375 6.390625 
Q 36.859375 6.390625 41.078125 11.03125 
Q 45.3125 15.671875 45.3125 23.6875 
L 45.3125 54.6875 
L 54.296875 54.6875 
L 54.296875 0 
L 45.3125 0 
L 45.3125 8.40625 
Q 42.046875 3.421875 37.71875 1 
Q 33.40625 -1.421875 27.6875 -1.421875 
Q 18.265625 -1.421875 13.375 4.4375 
Q 8.5 10.296875 8.5 21.578125 
z
M 31.109375 56 
z
" id="DejaVuSans-117"/>
      <path d="M 52 44.1875 
Q 55.375 50.25 60.0625 53.125 
Q 64.75 56 71.09375 56 
Q 79.640625 56 84.28125 50.015625 
Q 88.921875 44.046875 88.921875 33.015625 
L 88.921875 0 
L 79.890625 0 
L 79.890625 32.71875 
Q 79.890625 40.578125 77.09375 44.375 
Q 74.3125 48.1875 68.609375 48.1875 
Q 61.625 48.1875 57.5625 43.546875 
Q 53.515625 38.921875 53.515625 30.90625 
L 53.515625 0 
L 44.484375 0 
L 44.484375 32.71875 
Q 44.484375 40.625 41.703125 44.40625 
Q 38.921875 48.1875 33.109375 48.1875 
Q 26.21875 48.1875 22.15625 43.53125 
Q 18.109375 38.875 18.109375 30.90625 
L 18.109375 0 
L 9.078125 0 
L 9.078125 54.6875 
L 18.109375 54.6875 
L 18.109375 46.1875 
Q 21.1875 51.21875 25.484375 53.609375 
Q 29.78125 56 35.6875 56 
Q 41.65625 56 45.828125 52.96875 
Q 50 49.953125 52 44.1875 
z
" id="DejaVuSans-109"/>
      <path d="M 48.6875 27.296875 
Q 48.6875 37.203125 44.609375 42.84375 
Q 40.53125 48.484375 33.40625 48.484375 
Q 26.265625 48.484375 22.1875 42.84375 
Q 18.109375 37.203125 18.109375 27.296875 
Q 18.109375 17.390625 22.1875 11.75 
Q 26.265625 6.109375 33.40625 6.109375 
Q 40.53125 6.109375 44.609375 11.75 
Q 48.6875 17.390625 48.6875 27.296875 
z
M 18.109375 46.390625 
Q 20.953125 51.265625 25.265625 53.625 
Q 29.59375 56 35.59375 56 
Q 45.5625 56 51.78125 48.09375 
Q 58.015625 40.1875 58.015625 27.296875 
Q 58.015625 14.40625 51.78125 6.484375 
Q 45.5625 -1.421875 35.59375 -1.421875 
Q 29.59375 -1.421875 25.265625 0.953125 
Q 20.953125 3.328125 18.109375 8.203125 
L 18.109375 0 
L 9.078125 0 
L 9.078125 75.984375 
L 18.109375 75.984375 
z
" id="DejaVuSans-98"/>
      <path d="M 56.203125 29.59375 
L 56.203125 25.203125 
L 14.890625 25.203125 
Q 15.484375 15.921875 20.484375 11.0625 
Q 25.484375 6.203125 34.421875 6.203125 
Q 39.59375 6.203125 44.453125 7.46875 
Q 49.3125 8.734375 54.109375 11.28125 
L 54.109375 2.78125 
Q 49.265625 0.734375 44.1875 -0.34375 
Q 39.109375 -1.421875 33.890625 -1.421875 
Q 20.796875 -1.421875 13.15625 6.1875 
Q 5.515625 13.8125 5.515625 26.8125 
Q 5.515625 40.234375 12.765625 48.109375 
Q 20.015625 56 32.328125 56 
Q 43.359375 56 49.78125 48.890625 
Q 56.203125 41.796875 56.203125 29.59375 
z
M 47.21875 32.234375 
Q 47.125 39.59375 43.09375 43.984375 
Q 39.0625 48.390625 32.421875 48.390625 
Q 24.90625 48.390625 20.390625 44.140625 
Q 15.875 39.890625 15.1875 32.171875 
z
" id="DejaVuSans-101"/>
      <path d="M 41.109375 46.296875 
Q 39.59375 47.171875 37.8125 47.578125 
Q 36.03125 48 33.890625 48 
Q 26.265625 48 22.1875 43.046875 
Q 18.109375 38.09375 18.109375 28.8125 
L 18.109375 0 
L 9.078125 0 
L 9.078125 54.6875 
L 18.109375 54.6875 
L 18.109375 46.1875 
Q 20.953125 51.171875 25.484375 53.578125 
Q 30.03125 56 36.53125 56 
Q 37.453125 56 38.578125 55.875 
Q 39.703125 55.765625 41.0625 55.515625 
z
" id="DejaVuSans-114"/>
      <path id="DejaVuSans-32"/>
      <path d="M 30.609375 48.390625 
Q 23.390625 48.390625 19.1875 42.75 
Q 14.984375 37.109375 14.984375 27.296875 
Q 14.984375 17.484375 19.15625 11.84375 
Q 23.34375 6.203125 30.609375 6.203125 
Q 37.796875 6.203125 41.984375 11.859375 
Q 46.1875 17.53125 46.1875 27.296875 
Q 46.1875 37.015625 41.984375 42.703125 
Q 37.796875 48.390625 30.609375 48.390625 
z
M 30.609375 56 
Q 42.328125 56 49.015625 48.375 
Q 55.71875 40.765625 55.71875 27.296875 
Q 55.71875 13.875 49.015625 6.21875 
Q 42.328125 -1.421875 30.609375 -1.421875 
Q 18.84375 -1.421875 12.171875 6.21875 
Q 5.515625 13.875 5.515625 27.296875 
Q 5.515625 40.765625 12.171875 48.375 
Q 18.84375 56 30.609375 56 
z
" id="DejaVuSans-111"/>
      <path d="M 37.109375 75.984375 
L 37.109375 68.5 
L 28.515625 68.5 
Q 23.6875 68.5 21.796875 66.546875 
Q 19.921875 64.59375 19.921875 59.515625 
L 19.921875 54.6875 
L 34.71875 54.6875 
L 34.71875 47.703125 
L 19.921875 47.703125 
L 19.921875 0 
L 10.890625 0 
L 10.890625 47.703125 
L 2.296875 47.703125 
L 2.296875 54.6875 
L 10.890625 54.6875 
L 10.890625 58.5 
Q 10.890625 67.625 15.140625 71.796875 
Q 19.390625 75.984375 28.609375 75.984375 
z
" id="DejaVuSans-102"/>
      <path d="M 45.40625 46.390625 
L 45.40625 75.984375 
L 54.390625 75.984375 
L 54.390625 0 
L 45.40625 0 
L 45.40625 8.203125 
Q 42.578125 3.328125 38.25 0.953125 
Q 33.9375 -1.421875 27.875 -1.421875 
Q 17.96875 -1.421875 11.734375 6.484375 
Q 5.515625 14.40625 5.515625 27.296875 
Q 5.515625 40.1875 11.734375 48.09375 
Q 17.96875 56 27.875 56 
Q 33.9375 56 38.25 53.625 
Q 42.578125 51.265625 45.40625 46.390625 
z
M 14.796875 27.296875 
Q 14.796875 17.390625 18.875 11.75 
Q 22.953125 6.109375 30.078125 6.109375 
Q 37.203125 6.109375 41.296875 11.75 
Q 45.40625 17.390625 45.40625 27.296875 
Q 45.40625 37.203125 41.296875 42.84375 
Q 37.203125 48.484375 30.078125 48.484375 
Q 22.953125 48.484375 18.875 42.84375 
Q 14.796875 37.203125 14.796875 27.296875 
z
" id="DejaVuSans-100"/>
      <path d="M 9.421875 54.6875 
L 18.40625 54.6875 
L 18.40625 0 
L 9.421875 0 
z
M 9.421875 75.984375 
L 18.40625 75.984375 
L 18.40625 64.59375 
L 9.421875 64.59375 
z
" id="DejaVuSans-105"/>
      <path d="M 48.78125 52.59375 
L 48.78125 44.1875 
Q 44.96875 46.296875 41.140625 47.34375 
Q 37.3125 48.390625 33.40625 48.390625 
Q 24.65625 48.390625 19.8125 42.84375 
Q 14.984375 37.3125 14.984375 27.296875 
Q 14.984375 17.28125 19.8125 11.734375 
Q 24.65625 6.203125 33.40625 6.203125 
Q 37.3125 6.203125 41.140625 7.25 
Q 44.96875 8.296875 48.78125 10.40625 
L 48.78125 2.09375 
Q 45.015625 0.34375 40.984375 -0.53125 
Q 36.96875 -1.421875 32.421875 -1.421875 
Q 20.0625 -1.421875 12.78125 6.34375 
Q 5.515625 14.109375 5.515625 27.296875 
Q 5.515625 40.671875 12.859375 48.328125 
Q 20.21875 56 33.015625 56 
Q 37.15625 56 41.109375 55.140625 
Q 45.0625 54.296875 48.78125 52.59375 
z
" id="DejaVuSans-99"/>
      <path d="M 18.3125 70.21875 
L 18.3125 54.6875 
L 36.8125 54.6875 
L 36.8125 47.703125 
L 18.3125 47.703125 
L 18.3125 18.015625 
Q 18.3125 11.328125 20.140625 9.421875 
Q 21.96875 7.515625 27.59375 7.515625 
L 36.8125 7.515625 
L 36.8125 0 
L 27.59375 0 
Q 17.1875 0 13.234375 3.875 
Q 9.28125 7.765625 9.28125 18.015625 
L 9.28125 47.703125 
L 2.6875 47.703125 
L 2.6875 54.6875 
L 9.28125 54.6875 
L 9.28125 70.21875 
z
" id="DejaVuSans-116"/>
      <path d="M 54.890625 33.015625 
L 54.890625 0 
L 45.90625 0 
L 45.90625 32.71875 
Q 45.90625 40.484375 42.875 44.328125 
Q 39.84375 48.1875 33.796875 48.1875 
Q 26.515625 48.1875 22.3125 43.546875 
Q 18.109375 38.921875 18.109375 30.90625 
L 18.109375 0 
L 9.078125 0 
L 9.078125 54.6875 
L 18.109375 54.6875 
L 18.109375 46.1875 
Q 21.34375 51.125 25.703125 53.5625 
Q 30.078125 56 35.796875 56 
Q 45.21875 56 50.046875 50.171875 
Q 54.890625 44.34375 54.890625 33.015625 
z
" id="DejaVuSans-110"/>
      <path d="M 44.28125 53.078125 
L 44.28125 44.578125 
Q 40.484375 46.53125 36.375 47.5 
Q 32.28125 48.484375 27.875 48.484375 
Q 21.1875 48.484375 17.84375 46.4375 
Q 14.5 44.390625 14.5 40.28125 
Q 14.5 37.15625 16.890625 35.375 
Q 19.28125 33.59375 26.515625 31.984375 
L 29.59375 31.296875 
Q 39.15625 29.25 43.1875 25.515625 
Q 47.21875 21.78125 47.21875 15.09375 
Q 47.21875 7.46875 41.1875 3.015625 
Q 35.15625 -1.421875 24.609375 -1.421875 
Q 20.21875 -1.421875 15.453125 -0.5625 
Q 10.6875 0.296875 5.421875 2 
L 5.421875 11.28125 
Q 10.40625 8.6875 15.234375 7.390625 
Q 20.0625 6.109375 24.8125 6.109375 
Q 31.15625 6.109375 34.5625 8.28125 
Q 37.984375 10.453125 37.984375 14.40625 
Q 37.984375 18.0625 35.515625 20.015625 
Q 33.0625 21.96875 24.703125 23.78125 
L 21.578125 24.515625 
Q 13.234375 26.265625 9.515625 29.90625 
Q 5.8125 33.546875 5.8125 39.890625 
Q 5.8125 47.609375 11.28125 51.796875 
Q 16.75 56 26.8125 56 
Q 31.78125 56 36.171875 55.265625 
Q 40.578125 54.546875 44.28125 53.078125 
z
" id="DejaVuSans-115"/>
     </defs>
     <use xlink:href="#DejaVuSans-78"/>
     <use x="74.804688" xlink:href="#DejaVuSans-117"/>
     <use x="138.183594" xlink:href="#DejaVuSans-109"/>
     <use x="235.595703" xlink:href="#DejaVuSans-98"/>
     <use x="299.072266" xlink:href="#DejaVuSans-101"/>
     <use x="360.595703" xlink:href="#DejaVuSans-114"/>
     <use x="401.708984" xlink:href="#DejaVuSans-32"/>
     <use x="433.496094" xlink:href="#DejaVuSans-111"/>
     <use x="494.677734" xlink:href="#DejaVuSans-102"/>
     <use x="529.882812" xlink:href="#DejaVuSans-32"/>
     <use x="561.669922" xlink:href="#DejaVuSans-100"/>
     <use x="625.146484" xlink:href="#DejaVuSans-105"/>
     <use x="652.929688" xlink:href="#DejaVuSans-114"/>
     <use x="691.792969" xlink:href="#DejaVuSans-101"/>
     <use x="753.316406" xlink:href="#DejaVuSans-99"/>
     <use x="808.296875" xlink:href="#DejaVuSans-116"/>
     <use x="847.505859" xlink:href="#DejaVuSans-105"/>
     <use x="875.289062" xlink:href="#DejaVuSans-111"/>
     <use x="936.470703" xlink:href="#DejaVuSans-110"/>
     <use x="999.849609" xlink:href="#DejaVuSans-115"/>
    </g>
   </g>
  </g>
 </g>
 <defs>
  <clipPath id="p453fd76690">
   <rect height="233.28" width="375.84" x="55.2375" y="28.51845"/>
  </clipPath>
 </defs>
</svg>
