<?xml version="1.0" encoding="utf-8" standalone="no"?>
<!DOCTYPE svg PUBLIC "-//W3C//DTD SVG 1.1//EN"
  "http://www.w3.org/Graphics/SVG/1.1/DTD/svg11.dtd">
<!-- Created with matplotlib (https://matplotlib.org/) -->
<svg height="286.047825pt" version="1.1" viewBox="0 0 436.324886 286.047825" width="436.324886pt" xmlns="http://www.w3.org/2000/svg" xmlns:xlink="http://www.w3.org/1999/xlink">
 <metadata>
  <rdf:RDF xmlns:cc="http://creativecommons.org/ns#" xmlns:dc="http://purl.org/dc/elements/1.1/" xmlns:rdf="http://www.w3.org/1999/02/22-rdf-syntax-ns#">
   <cc:Work>
    <dc:type rdf:resource="http://purl.org/dc/dcmitype/StillImage"/>
    <dc:date>2020-12-17T19:31:05.852576</dc:date>
    <dc:format>image/svg+xml</dc:format>
    <dc:creator>
     <cc:Agent>
      <dc:title>Matplotlib v3.3.3, https://matplotlib.org/</dc:title>
     </cc:Agent>
    </dc:creator>
   </cc:Work>
  </rdf:RDF>
 </metadata>
 <defs>
  <style type="text/css">*{stroke-linecap:butt;stroke-linejoin:round;}</style>
 </defs>
 <g id="figure_1">
  <g id="patch_1">
   <path d="M 0 286.047825 
L 436.324886 286.047825 
L 436.324886 0 
L 0 0 
z
" style="fill:#f0f0f0;"/>
  </g>
  <g id="axes_1">
   <g id="patch_2">
    <path d="M 46.33 261.79845 
L 422.17 261.79845 
L 422.17 28.51845 
L 46.33 28.51845 
z
" style="fill:#f0f0f0;"/>
   </g>
   <g id="matplotlib.axis_1">
    <g id="xtick_1">
     <g id="line2d_1">
      <path clip-path="url(#pdffcc8f14d)" d="M 59.854545 261.79845 
L 59.854545 28.51845 
" style="fill:none;stroke:#cbcbcb;"/>
     </g>
     <g id="line2d_2"/>
     <g id="text_1">
      <!-- 0 -->
      <g transform="translate(55.400795 275.936262)scale(0.14 -0.14)">
       <defs>
        <path d="M 31.78125 66.40625 
Q 24.171875 66.40625 20.328125 58.90625 
Q 16.5 51.421875 16.5 36.375 
Q 16.5 21.390625 20.328125 13.890625 
Q 24.171875 6.390625 31.78125 6.390625 
Q 39.453125 6.390625 43.28125 13.890625 
Q 47.125 21.390625 47.125 36.375 
Q 47.125 51.421875 43.28125 58.90625 
Q 39.453125 66.40625 31.78125 66.40625 
z
M 31.78125 74.21875 
Q 44.046875 74.21875 50.515625 64.515625 
Q 56.984375 54.828125 56.984375 36.375 
Q 56.984375 17.96875 50.515625 8.265625 
Q 44.046875 -1.421875 31.78125 -1.421875 
Q 19.53125 -1.421875 13.0625 8.265625 
Q 6.59375 17.96875 6.59375 36.375 
Q 6.59375 54.828125 13.0625 64.515625 
Q 19.53125 74.21875 31.78125 74.21875 
z
" id="DejaVuSans-48"/>
       </defs>
       <use xlink:href="#DejaVuSans-48"/>
      </g>
     </g>
    </g>
    <g id="xtick_2">
     <g id="line2d_3">
      <path clip-path="url(#pdffcc8f14d)" d="M 131.036364 261.79845 
L 131.036364 28.51845 
" style="fill:none;stroke:#cbcbcb;"/>
     </g>
     <g id="line2d_4"/>
     <g id="text_2">
      <!-- 20 -->
      <g transform="translate(122.128864 275.936262)scale(0.14 -0.14)">
       <defs>
        <path d="M 19.1875 8.296875 
L 53.609375 8.296875 
L 53.609375 0 
L 7.328125 0 
L 7.328125 8.296875 
Q 12.9375 14.109375 22.625 23.890625 
Q 32.328125 33.6875 34.8125 36.53125 
Q 39.546875 41.84375 41.421875 45.53125 
Q 43.3125 49.21875 43.3125 52.78125 
Q 43.3125 58.59375 39.234375 62.25 
Q 35.15625 65.921875 28.609375 65.921875 
Q 23.96875 65.921875 18.8125 64.3125 
Q 13.671875 62.703125 7.8125 59.421875 
L 7.8125 69.390625 
Q 13.765625 71.78125 18.9375 73 
Q 24.125 74.21875 28.421875 74.21875 
Q 39.75 74.21875 46.484375 68.546875 
Q 53.21875 62.890625 53.21875 53.421875 
Q 53.21875 48.921875 51.53125 44.890625 
Q 49.859375 40.875 45.40625 35.40625 
Q 44.1875 33.984375 37.640625 27.21875 
Q 31.109375 20.453125 19.1875 8.296875 
z
" id="DejaVuSans-50"/>
       </defs>
       <use xlink:href="#DejaVuSans-50"/>
       <use x="63.623047" xlink:href="#DejaVuSans-48"/>
      </g>
     </g>
    </g>
    <g id="xtick_3">
     <g id="line2d_5">
      <path clip-path="url(#pdffcc8f14d)" d="M 202.218182 261.79845 
L 202.218182 28.51845 
" style="fill:none;stroke:#cbcbcb;"/>
     </g>
     <g id="line2d_6"/>
     <g id="text_3">
      <!-- 40 -->
      <g transform="translate(193.310682 275.936262)scale(0.14 -0.14)">
       <defs>
        <path d="M 37.796875 64.3125 
L 12.890625 25.390625 
L 37.796875 25.390625 
z
M 35.203125 72.90625 
L 47.609375 72.90625 
L 47.609375 25.390625 
L 58.015625 25.390625 
L 58.015625 17.1875 
L 47.609375 17.1875 
L 47.609375 0 
L 37.796875 0 
L 37.796875 17.1875 
L 4.890625 17.1875 
L 4.890625 26.703125 
z
" id="DejaVuSans-52"/>
       </defs>
       <use xlink:href="#DejaVuSans-52"/>
       <use x="63.623047" xlink:href="#DejaVuSans-48"/>
      </g>
     </g>
    </g>
    <g id="xtick_4">
     <g id="line2d_7">
      <path clip-path="url(#pdffcc8f14d)" d="M 273.4 261.79845 
L 273.4 28.51845 
" style="fill:none;stroke:#cbcbcb;"/>
     </g>
     <g id="line2d_8"/>
     <g id="text_4">
      <!-- 60 -->
      <g transform="translate(264.4925 275.936262)scale(0.14 -0.14)">
       <defs>
        <path d="M 33.015625 40.375 
Q 26.375 40.375 22.484375 35.828125 
Q 18.609375 31.296875 18.609375 23.390625 
Q 18.609375 15.53125 22.484375 10.953125 
Q 26.375 6.390625 33.015625 6.390625 
Q 39.65625 6.390625 43.53125 10.953125 
Q 47.40625 15.53125 47.40625 23.390625 
Q 47.40625 31.296875 43.53125 35.828125 
Q 39.65625 40.375 33.015625 40.375 
z
M 52.59375 71.296875 
L 52.59375 62.3125 
Q 48.875 64.0625 45.09375 64.984375 
Q 41.3125 65.921875 37.59375 65.921875 
Q 27.828125 65.921875 22.671875 59.328125 
Q 17.53125 52.734375 16.796875 39.40625 
Q 19.671875 43.65625 24.015625 45.921875 
Q 28.375 48.1875 33.59375 48.1875 
Q 44.578125 48.1875 50.953125 41.515625 
Q 57.328125 34.859375 57.328125 23.390625 
Q 57.328125 12.15625 50.6875 5.359375 
Q 44.046875 -1.421875 33.015625 -1.421875 
Q 20.359375 -1.421875 13.671875 8.265625 
Q 6.984375 17.96875 6.984375 36.375 
Q 6.984375 53.65625 15.1875 63.9375 
Q 23.390625 74.21875 37.203125 74.21875 
Q 40.921875 74.21875 44.703125 73.484375 
Q 48.484375 72.75 52.59375 71.296875 
z
" id="DejaVuSans-54"/>
       </defs>
       <use xlink:href="#DejaVuSans-54"/>
       <use x="63.623047" xlink:href="#DejaVuSans-48"/>
      </g>
     </g>
    </g>
    <g id="xtick_5">
     <g id="line2d_9">
      <path clip-path="url(#pdffcc8f14d)" d="M 344.581818 261.79845 
L 344.581818 28.51845 
" style="fill:none;stroke:#cbcbcb;"/>
     </g>
     <g id="line2d_10"/>
     <g id="text_5">
      <!-- 80 -->
      <g transform="translate(335.674318 275.936262)scale(0.14 -0.14)">
       <defs>
        <path d="M 31.78125 34.625 
Q 24.75 34.625 20.71875 30.859375 
Q 16.703125 27.09375 16.703125 20.515625 
Q 16.703125 13.921875 20.71875 10.15625 
Q 24.75 6.390625 31.78125 6.390625 
Q 38.8125 6.390625 42.859375 10.171875 
Q 46.921875 13.96875 46.921875 20.515625 
Q 46.921875 27.09375 42.890625 30.859375 
Q 38.875 34.625 31.78125 34.625 
z
M 21.921875 38.8125 
Q 15.578125 40.375 12.03125 44.71875 
Q 8.5 49.078125 8.5 55.328125 
Q 8.5 64.0625 14.71875 69.140625 
Q 20.953125 74.21875 31.78125 74.21875 
Q 42.671875 74.21875 48.875 69.140625 
Q 55.078125 64.0625 55.078125 55.328125 
Q 55.078125 49.078125 51.53125 44.71875 
Q 48 40.375 41.703125 38.8125 
Q 48.828125 37.15625 52.796875 32.3125 
Q 56.78125 27.484375 56.78125 20.515625 
Q 56.78125 9.90625 50.3125 4.234375 
Q 43.84375 -1.421875 31.78125 -1.421875 
Q 19.734375 -1.421875 13.25 4.234375 
Q 6.78125 9.90625 6.78125 20.515625 
Q 6.78125 27.484375 10.78125 32.3125 
Q 14.796875 37.15625 21.921875 38.8125 
z
M 18.3125 54.390625 
Q 18.3125 48.734375 21.84375 45.5625 
Q 25.390625 42.390625 31.78125 42.390625 
Q 38.140625 42.390625 41.71875 45.5625 
Q 45.3125 48.734375 45.3125 54.390625 
Q 45.3125 60.0625 41.71875 63.234375 
Q 38.140625 66.40625 31.78125 66.40625 
Q 25.390625 66.40625 21.84375 63.234375 
Q 18.3125 60.0625 18.3125 54.390625 
z
" id="DejaVuSans-56"/>
       </defs>
       <use xlink:href="#DejaVuSans-56"/>
       <use x="63.623047" xlink:href="#DejaVuSans-48"/>
      </g>
     </g>
    </g>
    <g id="xtick_6">
     <g id="line2d_11">
      <path clip-path="url(#pdffcc8f14d)" d="M 415.763636 261.79845 
L 415.763636 28.51845 
" style="fill:none;stroke:#cbcbcb;"/>
     </g>
     <g id="line2d_12"/>
     <g id="text_6">
      <!-- 100 -->
      <g transform="translate(402.402386 275.936262)scale(0.14 -0.14)">
       <defs>
        <path d="M 12.40625 8.296875 
L 28.515625 8.296875 
L 28.515625 63.921875 
L 10.984375 60.40625 
L 10.984375 69.390625 
L 28.421875 72.90625 
L 38.28125 72.90625 
L 38.28125 8.296875 
L 54.390625 8.296875 
L 54.390625 0 
L 12.40625 0 
z
" id="DejaVuSans-49"/>
       </defs>
       <use xlink:href="#DejaVuSans-49"/>
       <use x="63.623047" xlink:href="#DejaVuSans-48"/>
       <use x="127.246094" xlink:href="#DejaVuSans-48"/>
      </g>
     </g>
    </g>
   </g>
   <g id="matplotlib.axis_2">
    <g id="ytick_1">
     <g id="line2d_13">
      <path clip-path="url(#pdffcc8f14d)" d="M 46.33 261.79845 
L 422.17 261.79845 
" style="fill:none;stroke:#cbcbcb;"/>
     </g>
     <g id="line2d_14"/>
     <g id="text_7">
      <!-- 0 -->
      <g transform="translate(33.9225 267.117356)scale(0.14 -0.14)">
       <use xlink:href="#DejaVuSans-48"/>
      </g>
     </g>
    </g>
    <g id="ytick_2">
     <g id="line2d_15">
      <path clip-path="url(#pdffcc8f14d)" d="M 46.33 217.532375 
L 422.17 217.532375 
" style="fill:none;stroke:#cbcbcb;"/>
     </g>
     <g id="line2d_16"/>
     <g id="text_8">
      <!-- 1000 -->
      <g transform="translate(7.2 222.851282)scale(0.14 -0.14)">
       <use xlink:href="#DejaVuSans-49"/>
       <use x="63.623047" xlink:href="#DejaVuSans-48"/>
       <use x="127.246094" xlink:href="#DejaVuSans-48"/>
       <use x="190.869141" xlink:href="#DejaVuSans-48"/>
      </g>
     </g>
    </g>
    <g id="ytick_3">
     <g id="line2d_17">
      <path clip-path="url(#pdffcc8f14d)" d="M 46.33 173.266301 
L 422.17 173.266301 
" style="fill:none;stroke:#cbcbcb;"/>
     </g>
     <g id="line2d_18"/>
     <g id="text_9">
      <!-- 2000 -->
      <g transform="translate(7.2 178.585207)scale(0.14 -0.14)">
       <use xlink:href="#DejaVuSans-50"/>
       <use x="63.623047" xlink:href="#DejaVuSans-48"/>
       <use x="127.246094" xlink:href="#DejaVuSans-48"/>
       <use x="190.869141" xlink:href="#DejaVuSans-48"/>
      </g>
     </g>
    </g>
    <g id="ytick_4">
     <g id="line2d_19">
      <path clip-path="url(#pdffcc8f14d)" d="M 46.33 129.000226 
L 422.17 129.000226 
" style="fill:none;stroke:#cbcbcb;"/>
     </g>
     <g id="line2d_20"/>
     <g id="text_10">
      <!-- 3000 -->
      <g transform="translate(7.2 134.319132)scale(0.14 -0.14)">
       <defs>
        <path d="M 40.578125 39.3125 
Q 47.65625 37.796875 51.625 33 
Q 55.609375 28.21875 55.609375 21.1875 
Q 55.609375 10.40625 48.1875 4.484375 
Q 40.765625 -1.421875 27.09375 -1.421875 
Q 22.515625 -1.421875 17.65625 -0.515625 
Q 12.796875 0.390625 7.625 2.203125 
L 7.625 11.71875 
Q 11.71875 9.328125 16.59375 8.109375 
Q 21.484375 6.890625 26.8125 6.890625 
Q 36.078125 6.890625 40.9375 10.546875 
Q 45.796875 14.203125 45.796875 21.1875 
Q 45.796875 27.640625 41.28125 31.265625 
Q 36.765625 34.90625 28.71875 34.90625 
L 20.21875 34.90625 
L 20.21875 43.015625 
L 29.109375 43.015625 
Q 36.375 43.015625 40.234375 45.921875 
Q 44.09375 48.828125 44.09375 54.296875 
Q 44.09375 59.90625 40.109375 62.90625 
Q 36.140625 65.921875 28.71875 65.921875 
Q 24.65625 65.921875 20.015625 65.03125 
Q 15.375 64.15625 9.8125 62.3125 
L 9.8125 71.09375 
Q 15.4375 72.65625 20.34375 73.4375 
Q 25.25 74.21875 29.59375 74.21875 
Q 40.828125 74.21875 47.359375 69.109375 
Q 53.90625 64.015625 53.90625 55.328125 
Q 53.90625 49.265625 50.4375 45.09375 
Q 46.96875 40.921875 40.578125 39.3125 
z
" id="DejaVuSans-51"/>
       </defs>
       <use xlink:href="#DejaVuSans-51"/>
       <use x="63.623047" xlink:href="#DejaVuSans-48"/>
       <use x="127.246094" xlink:href="#DejaVuSans-48"/>
       <use x="190.869141" xlink:href="#DejaVuSans-48"/>
      </g>
     </g>
    </g>
    <g id="ytick_5">
     <g id="line2d_21">
      <path clip-path="url(#pdffcc8f14d)" d="M 46.33 84.734151 
L 422.17 84.734151 
" style="fill:none;stroke:#cbcbcb;"/>
     </g>
     <g id="line2d_22"/>
     <g id="text_11">
      <!-- 4000 -->
      <g transform="translate(7.2 90.053058)scale(0.14 -0.14)">
       <use xlink:href="#DejaVuSans-52"/>
       <use x="63.623047" xlink:href="#DejaVuSans-48"/>
       <use x="127.246094" xlink:href="#DejaVuSans-48"/>
       <use x="190.869141" xlink:href="#DejaVuSans-48"/>
      </g>
     </g>
    </g>
    <g id="ytick_6">
     <g id="line2d_23">
      <path clip-path="url(#pdffcc8f14d)" d="M 46.33 40.468077 
L 422.17 40.468077 
" style="fill:none;stroke:#cbcbcb;"/>
     </g>
     <g id="line2d_24"/>
     <g id="text_12">
      <!-- 5000 -->
      <g transform="translate(7.2 45.786983)scale(0.14 -0.14)">
       <defs>
        <path d="M 10.796875 72.90625 
L 49.515625 72.90625 
L 49.515625 64.59375 
L 19.828125 64.59375 
L 19.828125 46.734375 
Q 21.96875 47.46875 24.109375 47.828125 
Q 26.265625 48.1875 28.421875 48.1875 
Q 40.625 48.1875 47.75 41.5 
Q 54.890625 34.8125 54.890625 23.390625 
Q 54.890625 11.625 47.5625 5.09375 
Q 40.234375 -1.421875 26.90625 -1.421875 
Q 22.3125 -1.421875 17.546875 -0.640625 
Q 12.796875 0.140625 7.71875 1.703125 
L 7.71875 11.625 
Q 12.109375 9.234375 16.796875 8.0625 
Q 21.484375 6.890625 26.703125 6.890625 
Q 35.15625 6.890625 40.078125 11.328125 
Q 45.015625 15.765625 45.015625 23.390625 
Q 45.015625 31 40.078125 35.4375 
Q 35.15625 39.890625 26.703125 39.890625 
Q 22.75 39.890625 18.8125 39.015625 
Q 14.890625 38.140625 10.796875 36.28125 
z
" id="DejaVuSans-53"/>
       </defs>
       <use xlink:href="#DejaVuSans-53"/>
       <use x="63.623047" xlink:href="#DejaVuSans-48"/>
       <use x="127.246094" xlink:href="#DejaVuSans-48"/>
       <use x="190.869141" xlink:href="#DejaVuSans-48"/>
      </g>
     </g>
    </g>
   </g>
   <g id="patch_3">
    <path clip-path="url(#pdffcc8f14d)" d="M 63.413636 261.79845 
L 66.936036 261.79845 
L 66.936036 161.137396 
L 63.413636 161.137396 
z
" style="fill:#008fd5;"/>
   </g>
   <g id="patch_4">
    <path clip-path="url(#pdffcc8f14d)" d="M 66.936036 261.79845 
L 70.458435 261.79845 
L 70.458435 62.689646 
L 66.936036 62.689646 
z
" style="fill:#008fd5;"/>
   </g>
   <g id="patch_5">
    <path clip-path="url(#pdffcc8f14d)" d="M 70.458435 261.79845 
L 73.980834 261.79845 
L 73.980834 41.353398 
L 70.458435 41.353398 
z
" style="fill:#008fd5;"/>
   </g>
   <g id="patch_6">
    <path clip-path="url(#pdffcc8f14d)" d="M 73.980834 261.79845 
L 77.503233 261.79845 
L 77.503233 42.681381 
L 73.980834 42.681381 
z
" style="fill:#008fd5;"/>
   </g>
   <g id="patch_7">
    <path clip-path="url(#pdffcc8f14d)" d="M 77.503233 261.79845 
L 81.025633 261.79845 
L 81.025633 39.627021 
L 77.503233 39.627021 
z
" style="fill:#008fd5;"/>
   </g>
   <g id="patch_8">
    <path clip-path="url(#pdffcc8f14d)" d="M 81.025633 261.79845 
L 84.548032 261.79845 
L 84.548032 49.719686 
L 81.025633 49.719686 
z
" style="fill:#008fd5;"/>
   </g>
   <g id="patch_9">
    <path clip-path="url(#pdffcc8f14d)" d="M 84.548032 261.79845 
L 88.070431 261.79845 
L 88.070431 77.297451 
L 84.548032 77.297451 
z
" style="fill:#008fd5;"/>
   </g>
   <g id="patch_10">
    <path clip-path="url(#pdffcc8f14d)" d="M 88.070431 261.79845 
L 91.59283 261.79845 
L 91.59283 100.891269 
L 88.070431 100.891269 
z
" style="fill:#008fd5;"/>
   </g>
   <g id="patch_11">
    <path clip-path="url(#pdffcc8f14d)" d="M 91.59283 261.79845 
L 95.11523 261.79845 
L 95.11523 125.813069 
L 91.59283 125.813069 
z
" style="fill:#008fd5;"/>
   </g>
   <g id="patch_12">
    <path clip-path="url(#pdffcc8f14d)" d="M 95.11523 261.79845 
L 98.637629 261.79845 
L 98.637629 146.263995 
L 95.11523 146.263995 
z
" style="fill:#008fd5;"/>
   </g>
   <g id="patch_13">
    <path clip-path="url(#pdffcc8f14d)" d="M 98.637629 261.79845 
L 102.160028 261.79845 
L 102.160028 171.628456 
L 98.637629 171.628456 
z
" style="fill:#008fd5;"/>
   </g>
   <g id="patch_14">
    <path clip-path="url(#pdffcc8f14d)" d="M 102.160028 261.79845 
L 105.682427 261.79845 
L 105.682427 189.202088 
L 102.160028 189.202088 
z
" style="fill:#008fd5;"/>
   </g>
   <g id="patch_15">
    <path clip-path="url(#pdffcc8f14d)" d="M 105.682427 261.79845 
L 109.204827 261.79845 
L 109.204827 199.161954 
L 105.682427 199.161954 
z
" style="fill:#008fd5;"/>
   </g>
   <g id="patch_16">
    <path clip-path="url(#pdffcc8f14d)" d="M 109.204827 261.79845 
L 112.727226 261.79845 
L 112.727226 212.751639 
L 109.204827 212.751639 
z
" style="fill:#008fd5;"/>
   </g>
   <g id="patch_17">
    <path clip-path="url(#pdffcc8f14d)" d="M 112.727226 261.79845 
L 116.249625 261.79845 
L 116.249625 222.622974 
L 112.727226 222.622974 
z
" style="fill:#008fd5;"/>
   </g>
   <g id="patch_18">
    <path clip-path="url(#pdffcc8f14d)" d="M 116.249625 261.79845 
L 119.772024 261.79845 
L 119.772024 230.6794 
L 116.249625 230.6794 
z
" style="fill:#008fd5;"/>
   </g>
   <g id="patch_19">
    <path clip-path="url(#pdffcc8f14d)" d="M 119.772024 261.79845 
L 123.294424 261.79845 
L 123.294424 236.65532 
L 119.772024 236.65532 
z
" style="fill:#008fd5;"/>
   </g>
   <g id="patch_20">
    <path clip-path="url(#pdffcc8f14d)" d="M 123.294424 261.79845 
L 126.816823 261.79845 
L 126.816823 240.196606 
L 123.294424 240.196606 
z
" style="fill:#008fd5;"/>
   </g>
   <g id="patch_21">
    <path clip-path="url(#pdffcc8f14d)" d="M 126.816823 261.79845 
L 130.339222 261.79845 
L 130.339222 244.180552 
L 126.816823 244.180552 
z
" style="fill:#008fd5;"/>
   </g>
   <g id="patch_22">
    <path clip-path="url(#pdffcc8f14d)" d="M 130.339222 261.79845 
L 133.861621 261.79845 
L 133.861621 249.271151 
L 130.339222 249.271151 
z
" style="fill:#008fd5;"/>
   </g>
   <g id="patch_23">
    <path clip-path="url(#pdffcc8f14d)" d="M 133.861621 261.79845 
L 137.384021 261.79845 
L 137.384021 250.023674 
L 133.861621 250.023674 
z
" style="fill:#008fd5;"/>
   </g>
   <g id="patch_24">
    <path clip-path="url(#pdffcc8f14d)" d="M 137.384021 261.79845 
L 140.90642 261.79845 
L 140.90642 251.440189 
L 137.384021 251.440189 
z
" style="fill:#008fd5;"/>
   </g>
   <g id="patch_25">
    <path clip-path="url(#pdffcc8f14d)" d="M 140.90642 261.79845 
L 144.428819 261.79845 
L 144.428819 254.538814 
L 140.90642 254.538814 
z
" style="fill:#008fd5;"/>
   </g>
   <g id="patch_26">
    <path clip-path="url(#pdffcc8f14d)" d="M 144.428819 261.79845 
L 147.951218 261.79845 
L 147.951218 254.937208 
L 144.428819 254.937208 
z
" style="fill:#008fd5;"/>
   </g>
   <g id="patch_27">
    <path clip-path="url(#pdffcc8f14d)" d="M 147.951218 261.79845 
L 151.473618 261.79845 
L 151.473618 256.575053 
L 147.951218 256.575053 
z
" style="fill:#008fd5;"/>
   </g>
   <g id="patch_28">
    <path clip-path="url(#pdffcc8f14d)" d="M 151.473618 261.79845 
L 154.996017 261.79845 
L 154.996017 256.575053 
L 151.473618 256.575053 
z
" style="fill:#008fd5;"/>
   </g>
   <g id="patch_29">
    <path clip-path="url(#pdffcc8f14d)" d="M 154.996017 261.79845 
L 158.518416 261.79845 
L 158.518416 258.212898 
L 154.996017 258.212898 
z
" style="fill:#008fd5;"/>
   </g>
   <g id="patch_30">
    <path clip-path="url(#pdffcc8f14d)" d="M 158.518416 261.79845 
L 162.040815 261.79845 
L 162.040815 258.788357 
L 158.518416 258.788357 
z
" style="fill:#008fd5;"/>
   </g>
   <g id="patch_31">
    <path clip-path="url(#pdffcc8f14d)" d="M 162.040815 261.79845 
L 165.563215 261.79845 
L 165.563215 259.408082 
L 162.040815 259.408082 
z
" style="fill:#008fd5;"/>
   </g>
   <g id="patch_32">
    <path clip-path="url(#pdffcc8f14d)" d="M 165.563215 261.79845 
L 169.085614 261.79845 
L 169.085614 259.142486 
L 165.563215 259.142486 
z
" style="fill:#008fd5;"/>
   </g>
   <g id="patch_33">
    <path clip-path="url(#pdffcc8f14d)" d="M 169.085614 261.79845 
L 172.608013 261.79845 
L 172.608013 259.939275 
L 169.085614 259.939275 
z
" style="fill:#008fd5;"/>
   </g>
   <g id="patch_34">
    <path clip-path="url(#pdffcc8f14d)" d="M 172.608013 261.79845 
L 176.130412 261.79845 
L 176.130412 260.027807 
L 172.608013 260.027807 
z
" style="fill:#008fd5;"/>
   </g>
   <g id="patch_35">
    <path clip-path="url(#pdffcc8f14d)" d="M 176.130412 261.79845 
L 179.652812 261.79845 
L 179.652812 260.204871 
L 176.130412 260.204871 
z
" style="fill:#008fd5;"/>
   </g>
   <g id="patch_36">
    <path clip-path="url(#pdffcc8f14d)" d="M 179.652812 261.79845 
L 183.175211 261.79845 
L 183.175211 259.629412 
L 179.652812 259.629412 
z
" style="fill:#008fd5;"/>
   </g>
   <g id="patch_37">
    <path clip-path="url(#pdffcc8f14d)" d="M 183.175211 261.79845 
L 186.69761 261.79845 
L 186.69761 260.868862 
L 183.175211 260.868862 
z
" style="fill:#008fd5;"/>
   </g>
   <g id="patch_38">
    <path clip-path="url(#pdffcc8f14d)" d="M 186.69761 261.79845 
L 190.220009 261.79845 
L 190.220009 260.514734 
L 186.69761 260.514734 
z
" style="fill:#008fd5;"/>
   </g>
   <g id="patch_39">
    <path clip-path="url(#pdffcc8f14d)" d="M 190.220009 261.79845 
L 193.742409 261.79845 
L 193.742409 261.178725 
L 190.220009 261.178725 
z
" style="fill:#008fd5;"/>
   </g>
   <g id="patch_40">
    <path clip-path="url(#pdffcc8f14d)" d="M 193.742409 261.79845 
L 197.264808 261.79845 
L 197.264808 260.78033 
L 193.742409 260.78033 
z
" style="fill:#008fd5;"/>
   </g>
   <g id="patch_41">
    <path clip-path="url(#pdffcc8f14d)" d="M 197.264808 261.79845 
L 200.787207 261.79845 
L 200.787207 261.222991 
L 197.264808 261.222991 
z
" style="fill:#008fd5;"/>
   </g>
   <g id="patch_42">
    <path clip-path="url(#pdffcc8f14d)" d="M 200.787207 261.79845 
L 204.309606 261.79845 
L 204.309606 261.178725 
L 200.787207 261.178725 
z
" style="fill:#008fd5;"/>
   </g>
   <g id="patch_43">
    <path clip-path="url(#pdffcc8f14d)" d="M 204.309606 261.79845 
L 207.832006 261.79845 
L 207.832006 261.488587 
L 204.309606 261.488587 
z
" style="fill:#008fd5;"/>
   </g>
   <g id="patch_44">
    <path clip-path="url(#pdffcc8f14d)" d="M 207.832006 261.79845 
L 211.354405 261.79845 
L 211.354405 261.178725 
L 207.832006 261.178725 
z
" style="fill:#008fd5;"/>
   </g>
   <g id="patch_45">
    <path clip-path="url(#pdffcc8f14d)" d="M 211.354405 261.79845 
L 214.876804 261.79845 
L 214.876804 261.267257 
L 211.354405 261.267257 
z
" style="fill:#008fd5;"/>
   </g>
   <g id="patch_46">
    <path clip-path="url(#pdffcc8f14d)" d="M 214.876804 261.79845 
L 218.399203 261.79845 
L 218.399203 261.488587 
L 214.876804 261.488587 
z
" style="fill:#008fd5;"/>
   </g>
   <g id="patch_47">
    <path clip-path="url(#pdffcc8f14d)" d="M 218.399203 261.79845 
L 221.921603 261.79845 
L 221.921603 261.400055 
L 218.399203 261.400055 
z
" style="fill:#008fd5;"/>
   </g>
   <g id="patch_48">
    <path clip-path="url(#pdffcc8f14d)" d="M 221.921603 261.79845 
L 225.444002 261.79845 
L 225.444002 261.444321 
L 221.921603 261.444321 
z
" style="fill:#008fd5;"/>
   </g>
   <g id="patch_49">
    <path clip-path="url(#pdffcc8f14d)" d="M 225.444002 261.79845 
L 228.966401 261.79845 
L 228.966401 261.532854 
L 225.444002 261.532854 
z
" style="fill:#008fd5;"/>
   </g>
   <g id="patch_50">
    <path clip-path="url(#pdffcc8f14d)" d="M 228.966401 261.79845 
L 232.4888 261.79845 
L 232.4888 261.709918 
L 228.966401 261.709918 
z
" style="fill:#008fd5;"/>
   </g>
   <g id="patch_51">
    <path clip-path="url(#pdffcc8f14d)" d="M 232.4888 261.79845 
L 236.0112 261.79845 
L 236.0112 261.665652 
L 232.4888 261.665652 
z
" style="fill:#008fd5;"/>
   </g>
   <g id="patch_52">
    <path clip-path="url(#pdffcc8f14d)" d="M 236.0112 261.79845 
L 239.533599 261.79845 
L 239.533599 261.665652 
L 236.0112 261.665652 
z
" style="fill:#008fd5;"/>
   </g>
   <g id="patch_53">
    <path clip-path="url(#pdffcc8f14d)" d="M 239.533599 261.79845 
L 243.055998 261.79845 
L 243.055998 261.621386 
L 239.533599 261.621386 
z
" style="fill:#008fd5;"/>
   </g>
   <g id="patch_54">
    <path clip-path="url(#pdffcc8f14d)" d="M 243.055998 261.79845 
L 246.578397 261.79845 
L 246.578397 261.79845 
L 243.055998 261.79845 
z
" style="fill:#008fd5;"/>
   </g>
   <g id="patch_55">
    <path clip-path="url(#pdffcc8f14d)" d="M 246.578397 261.79845 
L 250.100797 261.79845 
L 250.100797 261.665652 
L 246.578397 261.665652 
z
" style="fill:#008fd5;"/>
   </g>
   <g id="patch_56">
    <path clip-path="url(#pdffcc8f14d)" d="M 250.100797 261.79845 
L 253.623196 261.79845 
L 253.623196 261.621386 
L 250.100797 261.621386 
z
" style="fill:#008fd5;"/>
   </g>
   <g id="patch_57">
    <path clip-path="url(#pdffcc8f14d)" d="M 253.623196 261.79845 
L 257.145595 261.79845 
L 257.145595 261.57712 
L 253.623196 261.57712 
z
" style="fill:#008fd5;"/>
   </g>
   <g id="patch_58">
    <path clip-path="url(#pdffcc8f14d)" d="M 257.145595 261.79845 
L 260.667994 261.79845 
L 260.667994 261.709918 
L 257.145595 261.709918 
z
" style="fill:#008fd5;"/>
   </g>
   <g id="patch_59">
    <path clip-path="url(#pdffcc8f14d)" d="M 260.667994 261.79845 
L 264.190394 261.79845 
L 264.190394 261.709918 
L 260.667994 261.709918 
z
" style="fill:#008fd5;"/>
   </g>
   <g id="patch_60">
    <path clip-path="url(#pdffcc8f14d)" d="M 264.190394 261.79845 
L 267.712793 261.79845 
L 267.712793 261.621386 
L 264.190394 261.621386 
z
" style="fill:#008fd5;"/>
   </g>
   <g id="patch_61">
    <path clip-path="url(#pdffcc8f14d)" d="M 267.712793 261.79845 
L 271.235192 261.79845 
L 271.235192 261.754184 
L 267.712793 261.754184 
z
" style="fill:#008fd5;"/>
   </g>
   <g id="patch_62">
    <path clip-path="url(#pdffcc8f14d)" d="M 271.235192 261.79845 
L 274.757591 261.79845 
L 274.757591 261.754184 
L 271.235192 261.754184 
z
" style="fill:#008fd5;"/>
   </g>
   <g id="patch_63">
    <path clip-path="url(#pdffcc8f14d)" d="M 274.757591 261.79845 
L 278.279991 261.79845 
L 278.279991 261.709918 
L 274.757591 261.709918 
z
" style="fill:#008fd5;"/>
   </g>
   <g id="patch_64">
    <path clip-path="url(#pdffcc8f14d)" d="M 278.279991 261.79845 
L 281.80239 261.79845 
L 281.80239 261.709918 
L 278.279991 261.709918 
z
" style="fill:#008fd5;"/>
   </g>
   <g id="patch_65">
    <path clip-path="url(#pdffcc8f14d)" d="M 281.80239 261.79845 
L 285.324789 261.79845 
L 285.324789 261.709918 
L 281.80239 261.709918 
z
" style="fill:#008fd5;"/>
   </g>
   <g id="patch_66">
    <path clip-path="url(#pdffcc8f14d)" d="M 285.324789 261.79845 
L 288.847188 261.79845 
L 288.847188 261.79845 
L 285.324789 261.79845 
z
" style="fill:#008fd5;"/>
   </g>
   <g id="patch_67">
    <path clip-path="url(#pdffcc8f14d)" d="M 288.847188 261.79845 
L 292.369588 261.79845 
L 292.369588 261.79845 
L 288.847188 261.79845 
z
" style="fill:#008fd5;"/>
   </g>
   <g id="patch_68">
    <path clip-path="url(#pdffcc8f14d)" d="M 292.369588 261.79845 
L 295.891987 261.79845 
L 295.891987 261.754184 
L 292.369588 261.754184 
z
" style="fill:#008fd5;"/>
   </g>
   <g id="patch_69">
    <path clip-path="url(#pdffcc8f14d)" d="M 295.891987 261.79845 
L 299.414386 261.79845 
L 299.414386 261.79845 
L 295.891987 261.79845 
z
" style="fill:#008fd5;"/>
   </g>
   <g id="patch_70">
    <path clip-path="url(#pdffcc8f14d)" d="M 299.414386 261.79845 
L 302.936785 261.79845 
L 302.936785 261.709918 
L 299.414386 261.709918 
z
" style="fill:#008fd5;"/>
   </g>
   <g id="patch_71">
    <path clip-path="url(#pdffcc8f14d)" d="M 302.936785 261.79845 
L 306.459185 261.79845 
L 306.459185 261.79845 
L 302.936785 261.79845 
z
" style="fill:#008fd5;"/>
   </g>
   <g id="patch_72">
    <path clip-path="url(#pdffcc8f14d)" d="M 306.459185 261.79845 
L 309.981584 261.79845 
L 309.981584 261.754184 
L 306.459185 261.754184 
z
" style="fill:#008fd5;"/>
   </g>
   <g id="patch_73">
    <path clip-path="url(#pdffcc8f14d)" d="M 309.981584 261.79845 
L 313.503983 261.79845 
L 313.503983 261.79845 
L 309.981584 261.79845 
z
" style="fill:#008fd5;"/>
   </g>
   <g id="patch_74">
    <path clip-path="url(#pdffcc8f14d)" d="M 313.503983 261.79845 
L 317.026382 261.79845 
L 317.026382 261.754184 
L 313.503983 261.754184 
z
" style="fill:#008fd5;"/>
   </g>
   <g id="patch_75">
    <path clip-path="url(#pdffcc8f14d)" d="M 317.026382 261.79845 
L 320.548782 261.79845 
L 320.548782 261.79845 
L 317.026382 261.79845 
z
" style="fill:#008fd5;"/>
   </g>
   <g id="patch_76">
    <path clip-path="url(#pdffcc8f14d)" d="M 320.548782 261.79845 
L 324.071181 261.79845 
L 324.071181 261.79845 
L 320.548782 261.79845 
z
" style="fill:#008fd5;"/>
   </g>
   <g id="patch_77">
    <path clip-path="url(#pdffcc8f14d)" d="M 324.071181 261.79845 
L 327.59358 261.79845 
L 327.59358 261.754184 
L 324.071181 261.754184 
z
" style="fill:#008fd5;"/>
   </g>
   <g id="patch_78">
    <path clip-path="url(#pdffcc8f14d)" d="M 327.59358 261.79845 
L 331.115979 261.79845 
L 331.115979 261.79845 
L 327.59358 261.79845 
z
" style="fill:#008fd5;"/>
   </g>
   <g id="patch_79">
    <path clip-path="url(#pdffcc8f14d)" d="M 331.115979 261.79845 
L 334.638379 261.79845 
L 334.638379 261.79845 
L 331.115979 261.79845 
z
" style="fill:#008fd5;"/>
   </g>
   <g id="patch_80">
    <path clip-path="url(#pdffcc8f14d)" d="M 334.638379 261.79845 
L 338.160778 261.79845 
L 338.160778 261.79845 
L 334.638379 261.79845 
z
" style="fill:#008fd5;"/>
   </g>
   <g id="patch_81">
    <path clip-path="url(#pdffcc8f14d)" d="M 338.160778 261.79845 
L 341.683177 261.79845 
L 341.683177 261.79845 
L 338.160778 261.79845 
z
" style="fill:#008fd5;"/>
   </g>
   <g id="patch_82">
    <path clip-path="url(#pdffcc8f14d)" d="M 341.683177 261.79845 
L 345.205576 261.79845 
L 345.205576 261.79845 
L 341.683177 261.79845 
z
" style="fill:#008fd5;"/>
   </g>
   <g id="patch_83">
    <path clip-path="url(#pdffcc8f14d)" d="M 345.205576 261.79845 
L 348.727976 261.79845 
L 348.727976 261.79845 
L 345.205576 261.79845 
z
" style="fill:#008fd5;"/>
   </g>
   <g id="patch_84">
    <path clip-path="url(#pdffcc8f14d)" d="M 348.727976 261.79845 
L 352.250375 261.79845 
L 352.250375 261.79845 
L 348.727976 261.79845 
z
" style="fill:#008fd5;"/>
   </g>
   <g id="patch_85">
    <path clip-path="url(#pdffcc8f14d)" d="M 352.250375 261.79845 
L 355.772774 261.79845 
L 355.772774 261.754184 
L 352.250375 261.754184 
z
" style="fill:#008fd5;"/>
   </g>
   <g id="patch_86">
    <path clip-path="url(#pdffcc8f14d)" d="M 355.772774 261.79845 
L 359.295173 261.79845 
L 359.295173 261.79845 
L 355.772774 261.79845 
z
" style="fill:#008fd5;"/>
   </g>
   <g id="patch_87">
    <path clip-path="url(#pdffcc8f14d)" d="M 359.295173 261.79845 
L 362.817573 261.79845 
L 362.817573 261.754184 
L 359.295173 261.754184 
z
" style="fill:#008fd5;"/>
   </g>
   <g id="patch_88">
    <path clip-path="url(#pdffcc8f14d)" d="M 362.817573 261.79845 
L 366.339972 261.79845 
L 366.339972 261.79845 
L 362.817573 261.79845 
z
" style="fill:#008fd5;"/>
   </g>
   <g id="patch_89">
    <path clip-path="url(#pdffcc8f14d)" d="M 366.339972 261.79845 
L 369.862371 261.79845 
L 369.862371 261.79845 
L 366.339972 261.79845 
z
" style="fill:#008fd5;"/>
   </g>
   <g id="patch_90">
    <path clip-path="url(#pdffcc8f14d)" d="M 369.862371 261.79845 
L 373.38477 261.79845 
L 373.38477 261.79845 
L 369.862371 261.79845 
z
" style="fill:#008fd5;"/>
   </g>
   <g id="patch_91">
    <path clip-path="url(#pdffcc8f14d)" d="M 373.38477 261.79845 
L 376.90717 261.79845 
L 376.90717 261.79845 
L 373.38477 261.79845 
z
" style="fill:#008fd5;"/>
   </g>
   <g id="patch_92">
    <path clip-path="url(#pdffcc8f14d)" d="M 376.90717 261.79845 
L 380.429569 261.79845 
L 380.429569 261.79845 
L 376.90717 261.79845 
z
" style="fill:#008fd5;"/>
   </g>
   <g id="patch_93">
    <path clip-path="url(#pdffcc8f14d)" d="M 380.429569 261.79845 
L 383.951968 261.79845 
L 383.951968 261.754184 
L 380.429569 261.754184 
z
" style="fill:#008fd5;"/>
   </g>
   <g id="patch_94">
    <path clip-path="url(#pdffcc8f14d)" d="M 383.951968 261.79845 
L 387.474367 261.79845 
L 387.474367 261.754184 
L 383.951968 261.754184 
z
" style="fill:#008fd5;"/>
   </g>
   <g id="patch_95">
    <path clip-path="url(#pdffcc8f14d)" d="M 387.474367 261.79845 
L 390.996767 261.79845 
L 390.996767 261.79845 
L 387.474367 261.79845 
z
" style="fill:#008fd5;"/>
   </g>
   <g id="patch_96">
    <path clip-path="url(#pdffcc8f14d)" d="M 390.996767 261.79845 
L 394.519166 261.79845 
L 394.519166 261.79845 
L 390.996767 261.79845 
z
" style="fill:#008fd5;"/>
   </g>
   <g id="patch_97">
    <path clip-path="url(#pdffcc8f14d)" d="M 394.519166 261.79845 
L 398.041565 261.79845 
L 398.041565 261.79845 
L 394.519166 261.79845 
z
" style="fill:#008fd5;"/>
   </g>
   <g id="patch_98">
    <path clip-path="url(#pdffcc8f14d)" d="M 398.041565 261.79845 
L 401.563964 261.79845 
L 401.563964 261.79845 
L 398.041565 261.79845 
z
" style="fill:#008fd5;"/>
   </g>
   <g id="patch_99">
    <path clip-path="url(#pdffcc8f14d)" d="M 401.563964 261.79845 
L 405.086364 261.79845 
L 405.086364 261.754184 
L 401.563964 261.754184 
z
" style="fill:#008fd5;"/>
   </g>
   <g id="patch_100">
    <path d="M 46.33 261.79845 
L 46.33 28.51845 
" style="fill:none;stroke:#f0f0f0;stroke-linecap:square;stroke-linejoin:miter;stroke-width:3;"/>
   </g>
   <g id="patch_101">
    <path d="M 422.17 261.79845 
L 422.17 28.51845 
" style="fill:none;stroke:#f0f0f0;stroke-linecap:square;stroke-linejoin:miter;stroke-width:3;"/>
   </g>
   <g id="patch_102">
    <path d="M 46.33 261.79845 
L 422.17 261.79845 
" style="fill:none;stroke:#f0f0f0;stroke-linecap:square;stroke-linejoin:miter;stroke-width:3;"/>
   </g>
   <g id="patch_103">
    <path d="M 46.33 28.51845 
L 422.17 28.51845 
" style="fill:none;stroke:#f0f0f0;stroke-linecap:square;stroke-linejoin:miter;stroke-width:3;"/>
   </g>
   <g id="text_13">
    <!-- Number of directions -->
    <g transform="translate(128.213125 22.51845)scale(0.2016 -0.2016)">
     <defs>
      <path d="M 9.8125 72.90625 
L 23.09375 72.90625 
L 55.421875 11.921875 
L 55.421875 72.90625 
L 64.984375 72.90625 
L 64.984375 0 
L 51.703125 0 
L 19.390625 60.984375 
L 19.390625 0 
L 9.8125 0 
z
" id="DejaVuSans-78"/>
      <path d="M 8.5 21.578125 
L 8.5 54.6875 
L 17.484375 54.6875 
L 17.484375 21.921875 
Q 17.484375 14.15625 20.5 10.265625 
Q 23.53125 6.390625 29.59375 6.390625 
Q 36.859375 6.390625 41.078125 11.03125 
Q 45.3125 15.671875 45.3125 23.6875 
L 45.3125 54.6875 
L 54.296875 54.6875 
L 54.296875 0 
L 45.3125 0 
L 45.3125 8.40625 
Q 42.046875 3.421875 37.71875 1 
Q 33.40625 -1.421875 27.6875 -1.421875 
Q 18.265625 -1.421875 13.375 4.4375 
Q 8.5 10.296875 8.5 21.578125 
z
M 31.109375 56 
z
" id="DejaVuSans-117"/>
      <path d="M 52 44.1875 
Q 55.375 50.25 60.0625 53.125 
Q 64.75 56 71.09375 56 
Q 79.640625 56 84.28125 50.015625 
Q 88.921875 44.046875 88.921875 33.015625 
L 88.921875 0 
L 79.890625 0 
L 79.890625 32.71875 
Q 79.890625 40.578125 77.09375 44.375 
Q 74.3125 48.1875 68.609375 48.1875 
Q 61.625 48.1875 57.5625 43.546875 
Q 53.515625 38.921875 53.515625 30.90625 
L 53.515625 0 
L 44.484375 0 
L 44.484375 32.71875 
Q 44.484375 40.625 41.703125 44.40625 
Q 38.921875 48.1875 33.109375 48.1875 
Q 26.21875 48.1875 22.15625 43.53125 
Q 18.109375 38.875 18.109375 30.90625 
L 18.109375 0 
L 9.078125 0 
L 9.078125 54.6875 
L 18.109375 54.6875 
L 18.109375 46.1875 
Q 21.1875 51.21875 25.484375 53.609375 
Q 29.78125 56 35.6875 56 
Q 41.65625 56 45.828125 52.96875 
Q 50 49.953125 52 44.1875 
z
" id="DejaVuSans-109"/>
      <path d="M 48.6875 27.296875 
Q 48.6875 37.203125 44.609375 42.84375 
Q 40.53125 48.484375 33.40625 48.484375 
Q 26.265625 48.484375 22.1875 42.84375 
Q 18.109375 37.203125 18.109375 27.296875 
Q 18.109375 17.390625 22.1875 11.75 
Q 26.265625 6.109375 33.40625 6.109375 
Q 40.53125 6.109375 44.609375 11.75 
Q 48.6875 17.390625 48.6875 27.296875 
z
M 18.109375 46.390625 
Q 20.953125 51.265625 25.265625 53.625 
Q 29.59375 56 35.59375 56 
Q 45.5625 56 51.78125 48.09375 
Q 58.015625 40.1875 58.015625 27.296875 
Q 58.015625 14.40625 51.78125 6.484375 
Q 45.5625 -1.421875 35.59375 -1.421875 
Q 29.59375 -1.421875 25.265625 0.953125 
Q 20.953125 3.328125 18.109375 8.203125 
L 18.109375 0 
L 9.078125 0 
L 9.078125 75.984375 
L 18.109375 75.984375 
z
" id="DejaVuSans-98"/>
      <path d="M 56.203125 29.59375 
L 56.203125 25.203125 
L 14.890625 25.203125 
Q 15.484375 15.921875 20.484375 11.0625 
Q 25.484375 6.203125 34.421875 6.203125 
Q 39.59375 6.203125 44.453125 7.46875 
Q 49.3125 8.734375 54.109375 11.28125 
L 54.109375 2.78125 
Q 49.265625 0.734375 44.1875 -0.34375 
Q 39.109375 -1.421875 33.890625 -1.421875 
Q 20.796875 -1.421875 13.15625 6.1875 
Q 5.515625 13.8125 5.515625 26.8125 
Q 5.515625 40.234375 12.765625 48.109375 
Q 20.015625 56 32.328125 56 
Q 43.359375 56 49.78125 48.890625 
Q 56.203125 41.796875 56.203125 29.59375 
z
M 47.21875 32.234375 
Q 47.125 39.59375 43.09375 43.984375 
Q 39.0625 48.390625 32.421875 48.390625 
Q 24.90625 48.390625 20.390625 44.140625 
Q 15.875 39.890625 15.1875 32.171875 
z
" id="DejaVuSans-101"/>
      <path d="M 41.109375 46.296875 
Q 39.59375 47.171875 37.8125 47.578125 
Q 36.03125 48 33.890625 48 
Q 26.265625 48 22.1875 43.046875 
Q 18.109375 38.09375 18.109375 28.8125 
L 18.109375 0 
L 9.078125 0 
L 9.078125 54.6875 
L 18.109375 54.6875 
L 18.109375 46.1875 
Q 20.953125 51.171875 25.484375 53.578125 
Q 30.03125 56 36.53125 56 
Q 37.453125 56 38.578125 55.875 
Q 39.703125 55.765625 41.0625 55.515625 
z
" id="DejaVuSans-114"/>
      <path id="DejaVuSans-32"/>
      <path d="M 30.609375 48.390625 
Q 23.390625 48.390625 19.1875 42.75 
Q 14.984375 37.109375 14.984375 27.296875 
Q 14.984375 17.484375 19.15625 11.84375 
Q 23.34375 6.203125 30.609375 6.203125 
Q 37.796875 6.203125 41.984375 11.859375 
Q 46.1875 17.53125 46.1875 27.296875 
Q 46.1875 37.015625 41.984375 42.703125 
Q 37.796875 48.390625 30.609375 48.390625 
z
M 30.609375 56 
Q 42.328125 56 49.015625 48.375 
Q 55.71875 40.765625 55.71875 27.296875 
Q 55.71875 13.875 49.015625 6.21875 
Q 42.328125 -1.421875 30.609375 -1.421875 
Q 18.84375 -1.421875 12.171875 6.21875 
Q 5.515625 13.875 5.515625 27.296875 
Q 5.515625 40.765625 12.171875 48.375 
Q 18.84375 56 30.609375 56 
z
" id="DejaVuSans-111"/>
      <path d="M 37.109375 75.984375 
L 37.109375 68.5 
L 28.515625 68.5 
Q 23.6875 68.5 21.796875 66.546875 
Q 19.921875 64.59375 19.921875 59.515625 
L 19.921875 54.6875 
L 34.71875 54.6875 
L 34.71875 47.703125 
L 19.921875 47.703125 
L 19.921875 0 
L 10.890625 0 
L 10.890625 47.703125 
L 2.296875 47.703125 
L 2.296875 54.6875 
L 10.890625 54.6875 
L 10.890625 58.5 
Q 10.890625 67.625 15.140625 71.796875 
Q 19.390625 75.984375 28.609375 75.984375 
z
" id="DejaVuSans-102"/>
      <path d="M 45.40625 46.390625 
L 45.40625 75.984375 
L 54.390625 75.984375 
L 54.390625 0 
L 45.40625 0 
L 45.40625 8.203125 
Q 42.578125 3.328125 38.25 0.953125 
Q 33.9375 -1.421875 27.875 -1.421875 
Q 17.96875 -1.421875 11.734375 6.484375 
Q 5.515625 14.40625 5.515625 27.296875 
Q 5.515625 40.1875 11.734375 48.09375 
Q 17.96875 56 27.875 56 
Q 33.9375 56 38.25 53.625 
Q 42.578125 51.265625 45.40625 46.390625 
z
M 14.796875 27.296875 
Q 14.796875 17.390625 18.875 11.75 
Q 22.953125 6.109375 30.078125 6.109375 
Q 37.203125 6.109375 41.296875 11.75 
Q 45.40625 17.390625 45.40625 27.296875 
Q 45.40625 37.203125 41.296875 42.84375 
Q 37.203125 48.484375 30.078125 48.484375 
Q 22.953125 48.484375 18.875 42.84375 
Q 14.796875 37.203125 14.796875 27.296875 
z
" id="DejaVuSans-100"/>
      <path d="M 9.421875 54.6875 
L 18.40625 54.6875 
L 18.40625 0 
L 9.421875 0 
z
M 9.421875 75.984375 
L 18.40625 75.984375 
L 18.40625 64.59375 
L 9.421875 64.59375 
z
" id="DejaVuSans-105"/>
      <path d="M 48.78125 52.59375 
L 48.78125 44.1875 
Q 44.96875 46.296875 41.140625 47.34375 
Q 37.3125 48.390625 33.40625 48.390625 
Q 24.65625 48.390625 19.8125 42.84375 
Q 14.984375 37.3125 14.984375 27.296875 
Q 14.984375 17.28125 19.8125 11.734375 
Q 24.65625 6.203125 33.40625 6.203125 
Q 37.3125 6.203125 41.140625 7.25 
Q 44.96875 8.296875 48.78125 10.40625 
L 48.78125 2.09375 
Q 45.015625 0.34375 40.984375 -0.53125 
Q 36.96875 -1.421875 32.421875 -1.421875 
Q 20.0625 -1.421875 12.78125 6.34375 
Q 5.515625 14.109375 5.515625 27.296875 
Q 5.515625 40.671875 12.859375 48.328125 
Q 20.21875 56 33.015625 56 
Q 37.15625 56 41.109375 55.140625 
Q 45.0625 54.296875 48.78125 52.59375 
z
" id="DejaVuSans-99"/>
      <path d="M 18.3125 70.21875 
L 18.3125 54.6875 
L 36.8125 54.6875 
L 36.8125 47.703125 
L 18.3125 47.703125 
L 18.3125 18.015625 
Q 18.3125 11.328125 20.140625 9.421875 
Q 21.96875 7.515625 27.59375 7.515625 
L 36.8125 7.515625 
L 36.8125 0 
L 27.59375 0 
Q 17.1875 0 13.234375 3.875 
Q 9.28125 7.765625 9.28125 18.015625 
L 9.28125 47.703125 
L 2.6875 47.703125 
L 2.6875 54.6875 
L 9.28125 54.6875 
L 9.28125 70.21875 
z
" id="DejaVuSans-116"/>
      <path d="M 54.890625 33.015625 
L 54.890625 0 
L 45.90625 0 
L 45.90625 32.71875 
Q 45.90625 40.484375 42.875 44.328125 
Q 39.84375 48.1875 33.796875 48.1875 
Q 26.515625 48.1875 22.3125 43.546875 
Q 18.109375 38.921875 18.109375 30.90625 
L 18.109375 0 
L 9.078125 0 
L 9.078125 54.6875 
L 18.109375 54.6875 
L 18.109375 46.1875 
Q 21.34375 51.125 25.703125 53.5625 
Q 30.078125 56 35.796875 56 
Q 45.21875 56 50.046875 50.171875 
Q 54.890625 44.34375 54.890625 33.015625 
z
" id="DejaVuSans-110"/>
      <path d="M 44.28125 53.078125 
L 44.28125 44.578125 
Q 40.484375 46.53125 36.375 47.5 
Q 32.28125 48.484375 27.875 48.484375 
Q 21.1875 48.484375 17.84375 46.4375 
Q 14.5 44.390625 14.5 40.28125 
Q 14.5 37.15625 16.890625 35.375 
Q 19.28125 33.59375 26.515625 31.984375 
L 29.59375 31.296875 
Q 39.15625 29.25 43.1875 25.515625 
Q 47.21875 21.78125 47.21875 15.09375 
Q 47.21875 7.46875 41.1875 3.015625 
Q 35.15625 -1.421875 24.609375 -1.421875 
Q 20.21875 -1.421875 15.453125 -0.5625 
Q 10.6875 0.296875 5.421875 2 
L 5.421875 11.28125 
Q 10.40625 8.6875 15.234375 7.390625 
Q 20.0625 6.109375 24.8125 6.109375 
Q 31.15625 6.109375 34.5625 8.28125 
Q 37.984375 10.453125 37.984375 14.40625 
Q 37.984375 18.0625 35.515625 20.015625 
Q 33.0625 21.96875 24.703125 23.78125 
L 21.578125 24.515625 
Q 13.234375 26.265625 9.515625 29.90625 
Q 5.8125 33.546875 5.8125 39.890625 
Q 5.8125 47.609375 11.28125 51.796875 
Q 16.75 56 26.8125 56 
Q 31.78125 56 36.171875 55.265625 
Q 40.578125 54.546875 44.28125 53.078125 
z
" id="DejaVuSans-115"/>
     </defs>
     <use xlink:href="#DejaVuSans-78"/>
     <use x="74.804688" xlink:href="#DejaVuSans-117"/>
     <use x="138.183594" xlink:href="#DejaVuSans-109"/>
     <use x="235.595703" xlink:href="#DejaVuSans-98"/>
     <use x="299.072266" xlink:href="#DejaVuSans-101"/>
     <use x="360.595703" xlink:href="#DejaVuSans-114"/>
     <use x="401.708984" xlink:href="#DejaVuSans-32"/>
     <use x="433.496094" xlink:href="#DejaVuSans-111"/>
     <use x="494.677734" xlink:href="#DejaVuSans-102"/>
     <use x="529.882812" xlink:href="#DejaVuSans-32"/>
     <use x="561.669922" xlink:href="#DejaVuSans-100"/>
     <use x="625.146484" xlink:href="#DejaVuSans-105"/>
     <use x="652.929688" xlink:href="#DejaVuSans-114"/>
     <use x="691.792969" xlink:href="#DejaVuSans-101"/>
     <use x="753.316406" xlink:href="#DejaVuSans-99"/>
     <use x="808.296875" xlink:href="#DejaVuSans-116"/>
     <use x="847.505859" xlink:href="#DejaVuSans-105"/>
     <use x="875.289062" xlink:href="#DejaVuSans-111"/>
     <use x="936.470703" xlink:href="#DejaVuSans-110"/>
     <use x="999.849609" xlink:href="#DejaVuSans-115"/>
    </g>
   </g>
  </g>
 </g>
 <defs>
  <clipPath id="pdffcc8f14d">
   <rect height="233.28" width="375.84" x="46.33" y="28.51845"/>
  </clipPath>
 </defs>
</svg>
